<?xml version="1.0" encoding="UTF-8" standalone="no"?>
<!-- Created with Sodipodi ("http://www.sodipodi.com/") -->
<svg
   xmlns:dc="http://purl.org/dc/elements/1.1/"
   xmlns:cc="http://creativecommons.org/ns#"
   xmlns:rdf="http://www.w3.org/1999/02/22-rdf-syntax-ns#"
   xmlns:svg="http://www.w3.org/2000/svg"
   xmlns="http://www.w3.org/2000/svg"
   xmlns:xlink="http://www.w3.org/1999/xlink"
   xmlns:sodipodi="http://sodipodi.sourceforge.net/DTD/sodipodi-0.dtd"
   xmlns:inkscape="http://www.inkscape.org/namespaces/inkscape"
   id="svg602"
   sodipodi:version="0.32"
   width="72pt"
   height="72pt"
   xml:space="preserve"
   sodipodi:docbase="/home/zeus"
   sodipodi:docname="gnome-devel.svg"
   inkscape:version="0.46"
   inkscape:output_extension="org.inkscape.output.svg.inkscape"><metadata
     id="metadata6320"><rdf:RDF><cc:Work
         rdf:about=""><dc:format>image/svg+xml</dc:format><dc:type
           rdf:resource="http://purl.org/dc/dcmitype/StillImage" /></cc:Work></rdf:RDF></metadata><defs
     id="defs604"><inkscape:perspective
       sodipodi:type="inkscape:persp3d"
       inkscape:vp_x="0 : 45 : 1"
       inkscape:vp_y="0 : 1000 : 0"
       inkscape:vp_z="90 : 45 : 1"
       inkscape:persp3d-origin="45 : 30 : 1"
       id="perspective6322" /><linearGradient
       id="linearGradient626"><stop
         style="stop-color:#ffedff;stop-opacity:1;"
         offset="0"
         id="stop627" /><stop
         style="stop-color:#ffffff;stop-opacity:0;"
         offset="1"
         id="stop628" /></linearGradient><linearGradient
       id="linearGradient619"><stop
         style="stop-color:#975d37;stop-opacity:1;"
         offset="0"
         id="stop620" /><stop
         style="stop-color:#ffffff;stop-opacity:0;"
         offset="1"
         id="stop621" /></linearGradient><linearGradient
       id="linearGradient615"><stop
         style="stop-color:#000;stop-opacity:1;"
         offset="0"
         id="stop616" /><stop
         style="stop-color:#fff;stop-opacity:1;"
         offset="1"
         id="stop617" /></linearGradient><linearGradient
       xlink:href="#linearGradient619"
       id="linearGradient618"
       x1="65.61586"
       y1="33.0194817"
       x2="59.364418"
       y2="24.6068878"
       gradientUnits="userSpaceOnUse"
       gradientTransform="scale(1.108723,0.901938)" /><linearGradient
       xlink:href="#linearGradient626"
       id="linearGradient625"
       x1="7.98131847"
       y1="60.1004372"
       x2="55.6679688"
       y2="60.1004372"
       gradientUnits="userSpaceOnUse"
       gradientTransform="scale(1.283731,0.778979)" /></defs><sodipodi:namedview
     id="base"
     showgrid="false"
     inkscape:zoom="5.4888889"
     inkscape:cx="45"
     inkscape:cy="45"
     inkscape:window-width="645"
     inkscape:window-height="719"
     inkscape:window-x="531"
     inkscape:window-y="214"
     inkscape:current-layer="svg602" /><path
     style="fill:#000000;fill-rule:evenodd;stroke:none;stroke-opacity:1;stroke-width:1pt;stroke-linejoin:miter;stroke-linecap:butt;fill-opacity:0.3636;"
     d="M 13.94547 89.37558 C 17.69201 88.12673 72.43318 72.51614 73.26575 71.26728 C 75.76344 68.14517 76.80414 62.94163 75.13901 60.65208 C 73.47388 58.36252 54.11674 49.41245 54.11674 49.41245 C 54.11674 47.53918 52.86789 41.91936 55.99001 40.87865 C 58.27956 42.54379 60.36098 40.25423 61.81797 39.21353 C 63.27496 38.17282 84.50537 23.60292 85.12979 21.72965 C 85.75422 19.85639 84.71352 10.28189 78.46927 10.90631 C 72.22503 11.53073 50.99462 29.43089 50.57834 31.30416 C 50.16206 33.17743 49.53763 34.42627 49.53763 34.42627 C 49.53763 34.42627 45.79108 36.50768 45.37481 38.79724 C 44.95853 41.08679 45.79109 45.24962 45.79109 45.24962 C 45.58295 43.58448 39.13057 40.46238 35.17588 42.54378 C 31.2212 45.66591 6.868665 77.30338 5.619815 81.25807 C 3.538403 86.66974 10.19892 90.62443 13.94547 89.37558 z "
     id="path629"
     sodipodi:nodetypes="ccccccccccccccc" /><path
     style="fill:#000000;fill-rule:evenodd;stroke:none;stroke-opacity:1;stroke-width:1pt;stroke-linejoin:miter;stroke-linecap:butt;fill-opacity:1;"
     d="M 10.19893 87.50231 C 13.94547 86.25346 68.68664 70.64287 69.51921 69.39401 C 72.0169 66.2719 73.0576 61.06836 71.39247 58.77881 C 69.72734 56.48925 50.3702 47.53918 50.3702 47.53918 C 50.3702 45.66591 49.12135 40.04609 52.24347 39.00538 C 54.53302 40.67052 56.61444 38.38096 58.07143 37.34026 C 59.52842 36.29955 80.75883 21.72965 81.38325 19.85638 C 82.00768 17.98312 80.96698 8.408618 74.72273 9.033038 C 68.47849 9.657458 47.24808 27.55762 46.8318 29.43089 C 46.41552 31.30416 45.79109 32.553 45.79109 32.553 C 45.79109 32.553 42.04454 34.63441 41.62827 36.92397 C 41.21199 39.21352 42.04455 43.37635 42.04455 43.37635 C 41.83641 41.71121 35.38403 38.58911 31.42934 40.67051 C 27.47466 43.79264 3.122124 75.43011 1.873274 79.3848 C -0.208138 84.79647 6.452376 88.75116 10.19893 87.50231 z "
     id="path623"
     sodipodi:nodetypes="ccccccccccccccc" /><path
     style="fill:#bababa;fill-rule:evenodd;stroke:none;stroke-opacity:1;stroke-width:1pt;stroke-linejoin:miter;stroke-linecap:butt;fill-opacity:1;"
     d="M 5.827956 79.3848 C 7.701236 76.88711 28.93165 46.91476 32.05377 45.87405 C 35.17589 44.83334 37.46544 44.83335 38.92243 45.24963 C 40.37942 45.66591 68.06221 61.27651 68.06221 61.27651 C 68.06221 61.27651 70.35176 64.60677 66.39708 67.10446 C 64.31567 68.97773 11.23964 84.79647 8.533796 84.79647 C 5.827956 84.79647 3.538405 82.50692 5.827956 79.3848 z "
     id="path608"
     sodipodi:nodetypes="ccccccc" /><path
     style="fill:#898989;fill-rule:evenodd;stroke:none;stroke-opacity:1;stroke-width:1pt;stroke-linejoin:miter;stroke-linecap:butt;fill-opacity:1;"
     d="M 5.619814 78.13595 C 7.493096 75.63826 28.72351 45.66591 31.84563 44.6252 C 34.96775 43.58449 37.2573 43.5845 38.71429 44.00078 C 40.17128 44.41706 67.85407 60.02766 67.85407 60.02766 C 67.85407 60.02766 69.31105 62.31722 65.35638 64.8149 C 63.27497 66.68817 11.0315 82.50691 8.325656 82.50691 C 5.619814 82.50691 3.330263 81.25807 5.619814 78.13595 z "
     id="path609"
     sodipodi:nodetypes="ccccccc" /><path
     style="fill:#ffad10;fill-rule:evenodd;stroke:none;stroke-opacity:1;stroke-width:1pt;stroke-linejoin:miter;stroke-linecap:butt;fill-opacity:1;"
     d="M 48.91321 30.67973 C 47.87251 32.96929 48.91321 38.17282 53.9086 36.50769 C 57.44701 36.71583 73.68202 23.60293 78.46927 19.64824 C 80.34256 17.35869 78.67742 8.200478 70.14362 13.61215 C 65.77266 16.31797 51.8272 27.14134 48.91321 30.67973 z "
     id="path612"
     sodipodi:nodetypes="ccccc" /><path
     style="fill:url(#linearGradient618);fill-rule:nonzero;stroke:none;stroke-opacity:1;stroke-width:1pt;stroke-linejoin:miter;stroke-linecap:butt;fill-opacity:1;"
     d="M 48.91321 30.67973 C 47.87251 32.96929 48.91321 38.17282 53.9086 36.50769 C 57.44701 36.71583 73.68202 23.60293 78.46927 19.64824 C 80.34256 17.35869 78.67742 8.200478 70.14362 13.61215 C 65.77266 16.31797 51.8272 27.14134 48.91321 30.67973 z "
     id="path614"
     sodipodi:nodetypes="ccccc" /><path
     style="fill:url(#linearGradient625);fill-rule:evenodd;stroke:none;stroke-opacity:1;stroke-width:1pt;stroke-linejoin:miter;stroke-linecap:butt;fill-opacity:1;"
     d="M 7.254156 77.25952 C 9.065976 74.85571 29.1835 47.25869 32.20318 46.25709 C 35.22286 45.25549 36.60471 44.2148 38.01389 44.61544 C 39.42308 45.01607 65.78126 59.41553 65.78126 59.41553 C 65.78126 59.41553 69.06372 62.24346 65.2388 64.64728 C 63.22568 66.45014 10.82315 81.67435 8.206086 81.67435 C 5.589031 81.67435 5.039734 80.26431 7.254156 77.25952 z "
     id="path624"
     sodipodi:nodetypes="ccccccc" /><path
     style="fill:#ffcf72;fill-rule:evenodd;stroke:none;stroke-opacity:1;stroke-width:1pt;stroke-linejoin:miter;stroke-linecap:butt;fill-opacity:1;"
     d="M 49.32949 30.88787 C 49.32949 30.88787 54.32489 27.76575 55.99002 32.76114 C 56.19816 35.46698 53.28418 37.13212 51.61905 36.92397 C 49.95392 36.71583 47.45622 35.25884 48.28878 33.17743 "
     id="path613"
     sodipodi:nodetypes="cccc" /><path
     style="fill:#929292;fill-rule:evenodd;stroke:none;stroke-opacity:1;stroke-width:1pt;stroke-linejoin:miter;stroke-linecap:butt;fill-opacity:1;"
     d="M 44.54225 51.49386 C 44.54225 51.49386 41.62827 40.67052 45.16667 36.50769 C 48.70507 32.34486 50.99463 31.5123 50.99463 31.5123 C 50.99463 31.5123 55.57373 32.13672 53.28418 34.84256 C 50.3702 37.13212 49.53764 38.58911 48.28879 42.1275 C 47.66437 44.83334 49.32949 50.6613 49.12135 51.49386 C 48.91321 52.32643 46.41552 52.95085 44.54225 51.49386 z "
     id="path610"
     sodipodi:nodetypes="ccccccc" /><path
     style="fill:#ffffff;fill-rule:evenodd;stroke:none;stroke-opacity:1;stroke-width:1pt;stroke-linejoin:miter;stroke-linecap:butt;fill-opacity:1;"
     d="M 51.20277 32.34486 C 51.20277 32.34486 45.79109 36.50769 45.16667 38.79724 C 44.54225 41.0868 45.16667 49.82873 45.58295 50.45316 C 45.99923 51.07758 44.95853 51.28572 46.62365 50.45316 C 46.41552 49.62059 44.54224 47.33104 45.99923 39.21352 C 47.45622 34.84256 53.28418 32.34486 51.20277 32.34486 z "
     id="path611"
     sodipodi:nodetypes="cccccc" /><path
     style="fill:#ffe9be;fill-rule:evenodd;stroke:none;stroke-opacity:1;stroke-width:1pt;stroke-linejoin:miter;stroke-linecap:butt;fill-opacity:1;"
     d="M 73.68203 12.77958 L 52.65976 28.39018 L 55.15745 29.0146 L 74.93086 13.61215 C 74.93086 13.61215 74.09831 11.94701 73.68203 12.77958 z "
     id="path622" /></svg>