<?xml version="1.0" encoding="UTF-8" standalone="no"?>
<!-- Created with Sodipodi ("http://www.sodipodi.com/") -->
<svg
   xmlns:dc="http://purl.org/dc/elements/1.1/"
   xmlns:cc="http://creativecommons.org/ns#"
   xmlns:rdf="http://www.w3.org/1999/02/22-rdf-syntax-ns#"
   xmlns:svg="http://www.w3.org/2000/svg"
   xmlns="http://www.w3.org/2000/svg"
   xmlns:sodipodi="http://sodipodi.sourceforge.net/DTD/sodipodi-0.dtd"
   xmlns:inkscape="http://www.inkscape.org/namespaces/inkscape"
   id="svg548"
   sodipodi:version="0.32"
   width="24.000000pt"
   height="24.000000pt"
   sodipodi:docbase="/home/zeus/.icons/gartoon/scalable/stock-gar"
   sodipodi:docname="gtk-info.svg"
   inkscape:version="0.46"
   inkscape:output_extension="org.inkscape.output.svg.inkscape">
  <metadata
     id="metadata15">
    <rdf:RDF>
      <cc:Work
         rdf:about="">
        <dc:format>image/svg+xml</dc:format>
        <dc:type
           rdf:resource="http://purl.org/dc/dcmitype/StillImage" />
      </cc:Work>
    </rdf:RDF>
  </metadata>
  <defs
     id="defs550">
    <inkscape:perspective
       sodipodi:type="inkscape:persp3d"
       inkscape:vp_x="0 : 15 : 1"
       inkscape:vp_y="0 : 1000 : 0"
       inkscape:vp_z="30 : 15 : 1"
       inkscape:persp3d-origin="15 : 10 : 1"
       id="perspective35177" />
    <defs
       id="defs565" />
    <sodipodi:namedview
       id="namedview553" />
  </defs>
  <sodipodi:namedview
     id="base"
     inkscape:zoom="2.5208333"
     inkscape:cx="36"
     inkscape:cy="-12.951259"
     inkscape:window-width="940"
     inkscape:window-height="719"
     inkscape:window-x="249"
     inkscape:window-y="159"
     inkscape:current-layer="svg548"
     showgrid="false" />
  <path
     style="font-size:12.000000;fill-opacity:0.29999998;fill-rule:evenodd;stroke-width:1.0000000pt"
     d="M 12.330230,12.422252 L 14.368695,11.246328 L 23.395180,12.260136 L 21.264017,25.201099 L 18.177487,28.921009 L 10.307871,28.180480 L 12.330230,12.422252 z "
     id="path574"
     sodipodi:nodetypes="ccccccc" />
  <path
     style="font-size:12.000000;fill:#2c0000;fill-rule:evenodd;stroke-width:1.0000000pt"
     d="M 8.5068795,12.437539 L 13.548768,9.9208927 L 22.340274,11.355393 L 19.057093,25.235934 L 16.434623,28.587747 L 9.0380901,28.383061 L 8.5068795,12.437539 z "
     id="path570"
     sodipodi:nodetypes="ccccccc" />
  <path
     style="font-size:12.000000;fill:none;fill-rule:evenodd;stroke-width:1.0000000pt"
     d="M 17.244437,27.035590 L 18.810404,25.417423 L 16.465562,12.085964 L 14.018884,11.589675 L 12.548335,13.289815 L 15.581547,13.631392 L 17.244437,27.035590 z "
     id="path568" />
  <path
     style="font-size:12.000000;fill:#790000;fill-rule:evenodd;stroke-width:1.0000000pt"
     d="M 15.303330,27.135335 L 17.702647,14.439637 L 10.565760,13.382095 L 13.888399,11.724509 L 20.179648,12.616564 L 17.328839,24.636051 L 15.303330,27.135335 z "
     id="path569"
     sodipodi:nodetypes="ccccccc" />
  <path
     style="font-size:12.000000;fill:#ff1400;fill-opacity:1.0000000;fill-rule:evenodd;stroke-width:1.0000000pt"
     d="M 10.664408,27.063641 L 10.385338,13.426110 L 18.020534,14.165892 L 15.386094,27.224798 L 10.664408,27.063641 z "
     id="path567"
     sodipodi:nodetypes="ccccc" />
  <path
     sodipodi:type="arc"
     style="font-size:12.000000;fill-opacity:0.29999998;fill-rule:evenodd;stroke-width:1.0000000pt"
     id="path575"
     d="M 51.947845 68.739090 A 11.939625 10.997026 0 1 1  28.068596,68.739090 A 11.939625 10.997026 0 1 1  51.947845 68.739090 z"
     sodipodi:cx="40.008221"
     sodipodi:cy="68.739090"
     sodipodi:rx="11.939625"
     sodipodi:ry="10.997026"
     transform="matrix(0.562387,-2.447783e-2,-2.652572e-2,-0.540867,-4.624098,45.19749)" />
  <path
     sodipodi:type="arc"
     style="font-size:12.000000;fill:#2c0000;fill-rule:evenodd;stroke-width:1.0000000pt"
     id="path558"
     d="M 51.947845 68.739090 A 11.939625 10.997026 0 1 1  28.068596,68.739090 A 11.939625 10.997026 0 1 1  51.947845 68.739090 z"
     sodipodi:cx="40.008221"
     sodipodi:cy="68.739090"
     sodipodi:rx="11.939625"
     sodipodi:ry="10.997026"
     transform="matrix(0.505510,-2.200229e-2,-2.481391e-2,-0.505962,-3.126497,43.11256)" />
  <path
     style="font-size:12.000000;fill:#790000;fill-rule:evenodd;stroke-width:1.0000000pt"
     d="M 19.862002,6.9734591 C 19.756452,4.8212624 17.835988,3.1544177 15.575267,3.2528153 C 13.314454,3.3512170 11.565317,5.1777808 11.670867,7.3299778 C 11.776418,9.4821747 16.823295,7.9464852 15.957694,11.050618 C 18.218416,10.952220 19.967553,9.1256561 19.862002,6.9734591 z "
     id="path562"
     sodipodi:nodetypes="ccccc" />
  <path
     style="font-size:12.000000;fill:#ff1400;fill-opacity:1.0000000;fill-rule:evenodd;stroke-width:1.0000000pt"
     d="M 18.337885,7.6095584 C 18.238932,5.5918795 16.478332,4.0274587 14.407962,4.1175714 C 12.337547,4.2076860 10.737569,5.9183755 10.836522,7.9360545 C 10.935474,9.9537326 12.696075,11.518153 14.766489,11.428039 C 16.836859,11.337926 18.436838,9.6272365 18.337885,7.6095584 z "
     id="path561" />
</svg>
