<?xml version="1.0" encoding="UTF-8" standalone="no"?>
<!DOCTYPE svg PUBLIC "-//W3C//DTD SVG 20010904//EN"
"http://www.w3.org/TR/2001/REC-SVG-20010904/DTD/svg10.dtd">
<!-- Created with Sodipodi ("http://www.sodipodi.com/") -->
<svg
   id="svg604"
   sodipodi:version="0.32"
   width="24.000000pt"
   height="24.000000pt"
   sodipodi:docbase="/home/zeus/.icons/gartoon/scalable/stock-gar"
   sodipodi:docname="stock_paste.svg"
   inkscape:version="0.40"
   xmlns="http://www.w3.org/2000/svg"
   xmlns:inkscape="http://www.inkscape.org/namespaces/inkscape"
   xmlns:sodipodi="http://sodipodi.sourceforge.net/DTD/sodipodi-0.dtd"
   xmlns:xlink="http://www.w3.org/1999/xlink"
   xmlns:rdf="http://www.w3.org/1999/02/22-rdf-syntax-ns#"
   xmlns:cc="http://web.resource.org/cc/"
   xmlns:dc="http://purl.org/dc/elements/1.1/">
  <metadata
     id="metadata23">
    <rdf:RDF
       id="RDF24">
      <cc:Work
         rdf:about=""
         id="Work25">
        <dc:format
           id="format26">image/svg+xml</dc:format>
        <dc:type
           id="type28"
           rdf:resource="http://purl.org/dc/dcmitype/StillImage" />
      </cc:Work>
    </rdf:RDF>
  </metadata>
  <defs
     id="defs606">
    <linearGradient
       id="linearGradient671">
      <stop
         style="stop-color:#7fa8e3;stop-opacity:0.741176;"
         offset="0.000000"
         id="stop672" />
      <stop
         style="stop-color:#ffffff;stop-opacity:0;"
         offset="1.000000"
         id="stop673" />
    </linearGradient>
    <linearGradient
       id="linearGradient612">
      <stop
         style="stop-color:#955801;stop-opacity:0.4471;"
         offset="0"
         id="stop613" />
      <stop
         style="stop-color:#000500;stop-opacity:0;"
         offset="1"
         id="stop614" />
    </linearGradient>
    <linearGradient
       xlink:href="#linearGradient612"
       id="linearGradient615"
       x1="36.2169151"
       y1="12.4090004"
       x2="37.9645462"
       y2="72.9033051"
       gradientUnits="userSpaceOnUse"
       spreadMethod="pad"
       gradientTransform="matrix(0.321682,0.000000,0.000000,0.321682,0.752234,0.876540)" />
    <linearGradient
       xlink:href="#linearGradient671"
       id="linearGradient710"
       x1="36.2169151"
       y1="12.4090004"
       x2="37.9645462"
       y2="72.9033051"
       gradientUnits="userSpaceOnUse"
       gradientTransform="matrix(0.321682,0.000000,0.000000,0.321682,0.752234,0.876540)" />
  </defs>
  <sodipodi:namedview
     id="base"
     inkscape:zoom="5.0416667"
     inkscape:cx="26.936261"
     inkscape:cy="-2.4793388"
     inkscape:window-width="874"
     inkscape:window-height="723"
     inkscape:window-x="147"
     inkscape:window-y="85"
     inkscape:current-layer="svg604" />
  <path
     style="fill:#000000;fill-opacity:0.29999998;fill-rule:evenodd;stroke:none;stroke-width:1.0000000pt;stroke-linecap:butt;stroke-linejoin:miter;stroke-opacity:1.0000000"
     d="M 22.103900,2.7563720 C 21.178156,2.4667362 8.6163579,4.3270600 7.2361445,4.5658351 C 5.5493420,4.8059228 4.6054938,5.5022206 4.1701097,6.4456663 C 3.3275020,7.6440071 5.0751662,24.851181 5.5774700,26.671443 C 5.7199141,28.473051 7.3487523,29.138339 8.3218226,29.154429 C 8.6146736,29.097918 10.986087,28.635186 12.574061,28.330118 C 13.046400,28.814922 13.689926,29.056146 14.162367,29.063956 C 15.054451,28.891818 26.160981,26.795551 27.291028,26.389971 C 28.421104,25.984385 28.642540,24.747855 28.507389,23.866775 C 28.224218,23.114563 26.382333,10.358244 26.436559,9.7328578 C 26.383829,8.5829174 25.802266,8.3939548 25.069409,8.1646563 C 24.995385,8.1414972 24.508466,8.1962902 24.265203,8.2048666 C 24.128476,7.1117132 23.809538,4.9008143 23.822890,4.7467815 C 23.756286,3.2941566 23.029682,3.0460273 22.103900,2.7563720 z "
     id="path845" />
  <path
     style="fill:#7e0000;fill-opacity:1.0000000;fill-rule:evenodd;stroke:none;stroke-width:1.0000000pt;stroke-linecap:butt;stroke-linejoin:miter;stroke-opacity:1.0000000"
     d="M 6.6637172,28.431660 C 5.6906442,28.415563 4.0592966,27.744199 3.9168541,25.942592 C 3.4145451,24.122330 1.6683665,6.9177287 2.5109739,5.7193848 C 2.9463573,4.7759420 3.8944392,4.0833705 5.5812498,3.8432800 C 6.9614568,3.6045035 19.516001,1.7384314 20.441748,2.0280674 C 21.367524,2.3177227 22.096778,2.5626510 22.163376,4.0152736 C 22.094906,4.8052762 24.426758,20.918950 24.784498,21.869157 C 24.955196,22.982152 24.674991,24.537496 23.247471,25.049843 C 21.819973,25.562180 7.7906091,28.214207 6.6637172,28.431660 z "
     id="path609"
     sodipodi:nodetypes="ccccccccc" />
  <path
     style="fill:#ffd056;fill-opacity:1.0000000;fill-rule:evenodd;stroke:none;stroke-width:1.0000000pt;stroke-linecap:butt;stroke-linejoin:miter;stroke-opacity:1.0000000"
     d="M 7.7879037,26.523383 C 6.8444962,26.664100 5.5340622,26.958268 5.3775347,25.500989 C 4.7257387,22.051246 3.2312817,8.3791091 4.2961513,6.1572428 C 4.5339904,5.6347759 5.8253005,4.9255982 8.7586059,4.6295444 C 12.092001,4.2507505 18.931619,3.6747201 19.651371,3.7121382 C 20.371087,3.7495658 20.591272,3.6574946 20.747819,5.1148085 C 20.684242,6.6641658 22.855498,18.784291 22.983765,20.930189 C 23.083571,22.453535 23.255330,23.100773 22.374673,23.469044"
     id="path608"
     sodipodi:nodetypes="cccccccs" />
  <path
     style="fill:url(#linearGradient615);fill-opacity:1.0000000;fill-rule:evenodd;stroke:none;stroke-width:1.0000000pt;stroke-linecap:butt;stroke-linejoin:miter;stroke-opacity:1.0000000"
     d="M 4.5321728,8.2203267 C 4.5321728,8.2203267 4.6170197,6.1528517 7.0593189,5.7411369 C 9.5016154,5.3294318 19.174172,3.9261492 19.404638,4.6425692 C 19.635094,5.3589848 19.920420,10.014799 19.991582,10.391441 C 20.062745,10.768070 11.874771,13.988895 9.6263958,17.062686 C 7.3780161,20.136470 5.8033714,22.623727 5.8033714,22.623727 C 5.8033714,22.623727 4.5158796,11.783088 4.5321728,8.2203267 z "
     id="path636" />
  <path
     style="fill:#4e4e4e;fill-opacity:1.0000000;fill-rule:evenodd;stroke:none;stroke-width:1.0000000pt;stroke-linecap:butt;stroke-linejoin:miter;stroke-opacity:1.0000000"
     d="M 8.7839160,2.0906327 C 8.7839160,2.0906327 13.640283,1.2501070 13.920458,1.4368903 C 14.200635,1.6236731 14.200632,3.1179413 14.480807,3.3047243 C 14.760982,3.4915074 16.161858,3.2113312 16.348642,3.5848977 C 16.535424,3.9584639 16.722206,5.5461235 16.722206,5.5461235 L 7.7566104,6.9469986 C 7.7566104,6.9469986 6.5425170,5.3593387 7.4764348,4.7989905 C 8.4103524,4.2386391 9.1574860,4.5188148 9.1574860,4.0518569 C 9.1574860,3.5848977 8.7839160,2.0906327 8.7839160,2.0906327 z "
     id="path674" />
  <path
     style="fill:#a4a4a4;fill-opacity:1.0000000;fill-rule:evenodd;stroke:none;stroke-width:1.0000000pt;stroke-linecap:butt;stroke-linejoin:miter;stroke-opacity:1.0000000"
     d="M 9.2725452,2.3723335 C 9.2725452,2.3723335 13.372913,1.6452217 13.609475,1.8067994 C 13.846037,1.9683809 13.752644,3.5412029 13.989206,3.7027839 C 14.225767,3.8643650 15.501956,3.3418171 15.659664,3.6649763 C 15.817368,3.9881387 15.788288,4.6144414 15.881682,5.1747926 L 8.4985514,6.3866441 C 8.2183792,6.0130776 7.5668533,5.3867781 8.3553830,4.9020383 C 9.1439206,4.4172952 9.9615279,4.4728818 9.9615279,4.0689292 C 9.9615279,3.6649763 9.2725452,2.3723335 9.2725452,2.3723335 z "
     id="path675"
     sodipodi:nodetypes="ccccccccc" />
  <path
     style="fill:#f8f8f8;fill-opacity:1.0000000;fill-rule:evenodd;stroke:none;stroke-width:1.0000000pt;stroke-linecap:butt;stroke-linejoin:miter;stroke-opacity:1.0000000"
     d="M 15.321331,4.0518569 L 15.414721,5.0791662 L 9.2508763,6.0130807 C 9.2508763,6.0130807 15.041158,5.1725570 15.321331,4.0518569 z "
     id="path676" />
  <path
     style="fill:#656565;fill-opacity:1.0000000;fill-rule:evenodd;stroke:none;stroke-width:1.0000000pt;stroke-linecap:butt;stroke-linejoin:miter;stroke-opacity:1.0000000"
     d="M 9.7178335,2.5575919 L 10.371576,3.8650736 C 10.371576,3.8650736 8.1301738,4.8923813 8.1301738,5.2659478 C 8.1301738,5.6395143 8.7839160,6.1998656 8.7839160,6.1998656 L 9.4376582,6.0130807 C 9.4376582,6.0130807 8.6905246,5.5461235 9.0640914,5.1725570 C 9.4376582,4.7989905 11.492275,4.5188116 11.118709,3.7716806 C 10.745142,3.0245483 9.9046153,2.4641989 9.7178335,2.5575919 z "
     id="path677" />
  <path
     style="fill:#3d4e67;fill-opacity:1.0000000;fill-rule:evenodd;stroke:none;stroke-width:1.0000000pt;stroke-linecap:butt;stroke-linejoin:miter;stroke-opacity:1.0000000"
     d="M 12.849031,28.489750 C 12.078719,28.477007 10.787295,27.945537 10.674540,26.519332 C 10.276895,25.078363 8.8945711,11.458716 9.5616017,10.510075 C 9.9062658,9.7632181 10.656792,9.2149588 11.992118,9.0248960 C 13.084732,8.8358754 23.023256,7.3586394 23.756112,7.5879217 C 24.488997,7.8172233 25.066273,8.0111141 25.119003,9.1610513 C 25.064809,9.7864404 26.910770,22.542476 27.193973,23.294689 C 27.329063,24.175768 27.107270,25.407020 25.977193,25.812610 C 24.847145,26.218187 13.741108,28.317608 12.849031,28.489750 z "
     id="path703"
     sodipodi:nodetypes="ccccccccc" />
  <path
     style="fill:#ffffff;fill-opacity:1.0000000;fill-rule:evenodd;stroke:none;stroke-width:1.0000000pt;stroke-linecap:butt;stroke-linejoin:miter;stroke-opacity:1.0000000"
     d="M 13.738965,26.979103 C 12.992141,27.090499 11.954761,27.323371 11.830849,26.169747 C 11.314874,23.438832 10.131819,12.615585 10.974798,10.856693 C 11.163078,10.443093 12.185314,9.8816873 14.507404,9.6473257 C 17.146212,9.3474630 22.560651,8.8914590 23.130414,8.9210795 C 23.700187,8.9507097 23.874469,8.8778229 23.998393,10.031475 C 23.948069,11.257986 25.666911,20.852621 25.768441,22.551371 C 25.847465,23.757297 25.983408,24.269670 25.286281,24.561204"
     id="path704"
     sodipodi:nodetypes="cccccccs" />
  <path
     style="fill:url(#linearGradient710);fill-opacity:1.0000000;fill-rule:evenodd;stroke:none;stroke-width:1.0000000pt;stroke-linecap:butt;stroke-linejoin:miter;stroke-opacity:1.0000000"
     d="M 11.161640,12.489891 C 11.161640,12.489891 11.228807,10.853216 13.162199,10.527294 C 15.095590,10.201375 22.752659,9.0904968 22.935088,9.6576355 C 23.117518,10.224771 23.343416,13.910444 23.399723,14.208604 C 23.456085,14.506755 16.974248,17.056451 15.194370,19.489750 C 13.414487,21.923042 12.167956,23.892027 12.167956,23.892027 C 12.167956,23.892027 11.148741,15.310270 11.161640,12.489891 z "
     id="path705" />
</svg>
