<?xml version="1.0" encoding="UTF-8" standalone="no"?>
<!DOCTYPE svg PUBLIC "-//W3C//DTD SVG 20010904//EN"
"http://www.w3.org/TR/2001/REC-SVG-20010904/DTD/svg10.dtd">
<!-- Created with Inkscape (http://www.inkscape.org/) -->
<svg
   version="1"
   x="0.00000000"
   y="0.00000000"
   width="24.000000pt"
   height="24.000000pt"
   id="svg548"
   sodipodi:version="0.32"
   sodipodi:docname="stock_cdplayer-stop.svg"
   sodipodi:docbase="/home/zeus/.icons/gartoon/scalable/stock-gar"
   inkscape:version="0.40"
   xmlns="http://www.w3.org/2000/svg"
   xmlns:inkscape="http://www.inkscape.org/namespaces/inkscape"
   xmlns:sodipodi="http://sodipodi.sourceforge.net/DTD/sodipodi-0.dtd"
   xmlns:xlink="http://www.w3.org/1999/xlink"
   xmlns:rdf="http://www.w3.org/1999/02/22-rdf-syntax-ns#"
   xmlns:cc="http://web.resource.org/cc/"
   xmlns:dc="http://purl.org/dc/elements/1.1/">
  <metadata
     id="metadata18">
    <rdf:RDF
       id="RDF19">
      <cc:Work
         rdf:about=""
         id="Work20">
        <dc:format
           id="format21">image/svg+xml</dc:format>
        <dc:type
           id="type23"
           rdf:resource="http://purl.org/dc/dcmitype/StillImage" />
      </cc:Work>
    </rdf:RDF>
  </metadata>
  <sodipodi:namedview
     id="base"
     inkscape:zoom="9.6562500"
     inkscape:cx="36.600568"
     inkscape:cy="4.4325477"
     inkscape:window-width="1014"
     inkscape:window-height="696"
     inkscape:window-x="0"
     inkscape:window-y="27"
     showguides="true"
     snaptoguides="true"
     inkscape:current-layer="svg548" />
  <defs
     id="defs550">
    <linearGradient
       x1="0.00000000"
       y1="0.00000000"
       x2="1.00000000"
       y2="0.00000000"
       id="linearGradient556"
       gradientUnits="objectBoundingBox"
       spreadMethod="pad">
      <stop
         style="stop-color:#ff8700;stop-opacity:1;"
         offset="0.00000000"
         id="stop557" />
      <stop
         style="stop-color:#ffff8d;stop-opacity:0;"
         offset="1.00000000"
         id="stop558" />
    </linearGradient>
    <linearGradient
       x1="0.00000000"
       y1="0.00000000"
       x2="1.00000000"
       y2="0.00000000"
       id="linearGradient559"
       xlink:href="#linearGradient556"
       gradientUnits="objectBoundingBox"
       spreadMethod="pad" />
    <sodipodi:namedview
       id="namedview852"
       inkscape:zoom="9.65625000"
       inkscape:cx="16.0000000"
       inkscape:cy="28.4271845"
       inkscape:window-width="1014"
       inkscape:window-height="696"
       inkscape:window-x="0"
       inkscape:window-y="0" />
    <defs
       id="defs853">
      <linearGradient
         x1="0.00000000"
         y1="0.00000000"
         x2="1.00000000"
         y2="0.00000000"
         id="linearGradient854"
         gradientUnits="objectBoundingBox"
         spreadMethod="pad">
        <stop
           style="stop-color:#ff8700;stop-opacity:1;"
           offset="0.00000000"
           id="stop855" />
        <stop
           style="stop-color:#ffff8d;stop-opacity:0;"
           offset="1.00000000"
           id="stop856" />
      </linearGradient>
      <linearGradient
         x1="0.00000000"
         y1="0.00000000"
         x2="1.00000000"
         y2="0.00000000"
         id="linearGradient857"
         xlink:href="#linearGradient556"
         gradientUnits="objectBoundingBox"
         spreadMethod="pad" />
    </defs>
  </defs>
  <path
     style="fill:#0d3c07;fill-rule:evenodd;stroke-width:1.0000000pt"
     d="M 26.459876,3.5114970 L 26.771455,13.308966 C 26.863609,18.174970 26.922667,21.152092 26.810621,27.627486 L 4.1814994,27.985573 C 3.7131915,21.668009 3.5740874,19.261065 3.7908814,13.637881 C 4.0519529,9.6122215 3.8867793,9.1337778 4.3365029,3.8523539 C 4.0724355,3.4286958 25.535409,1.9657300 26.459876,3.5114970 z "
     id="path590"
     sodipodi:nodetypes="ccccccc" />
  <path
     style="fill:#2aaf18;fill-opacity:1.0000000;fill-rule:evenodd;stroke-width:1.0000000pt"
     d="M 24.784154,5.5375093 L 25.047257,13.810613 C 25.125072,17.919527 25.174942,20.433446 25.080329,25.901348 L 5.9720176,26.203723 C 5.5765727,20.869093 5.4591116,18.836639 5.6421751,14.088353 C 5.8626270,10.689037 5.7231524,10.285034 6.1029043,5.8253328 C 5.8799227,5.4675909 24.003524,4.2322441 24.784154,5.5375093 z "
     id="path903"
     sodipodi:nodetypes="ccccccc" />
  <path
     style="fill:#208c11;fill-rule:evenodd;stroke-width:1.0000000pt"
     d="M 24.023258,25.862762 L 6.0438094,26.230214 C 5.9770197,25.528924 5.6574441,23.606458 5.6330758,21.498920 C 5.6087024,19.391383 5.5789775,15.562574 5.5788160,15.510838 C 5.5784930,15.407359 7.0546807,15.981777 7.4624074,17.408594 C 7.8971148,19.025231 7.4301151,22.680235 7.8039876,22.679098 L 23.902894,22.630163 C 24.006889,22.629846 24.341128,25.856266 24.023258,25.862762 z "
     id="path592"
     sodipodi:nodetypes="ccssssss" />
  <path
     style="fill:#ffffff;fill-opacity:1.0000000;fill-rule:evenodd;stroke-width:1.0000000pt"
     d="M 6.5236328,5.4830359 L 24.770241,5.1155830 C 24.837030,5.8168739 24.889448,7.7393395 24.913817,9.8468774 C 24.938190,11.954415 24.967915,15.783223 24.968076,15.834961 C 24.968400,15.938438 23.492212,15.364021 23.084484,13.937205 C 22.649778,12.320567 23.116778,8.6655639 22.742905,8.6667005 L 6.6439978,8.7156355 C 6.5400023,8.7159513 6.2057619,5.4894372 6.5236328,5.4830359 z "
     id="path904"
     sodipodi:nodetypes="ccssssss" />
</svg>
