<?xml version="1.0" encoding="UTF-8" standalone="no"?>
<!-- Created with Inkscape (http://www.inkscape.org/) -->
<svg
   xmlns:dc="http://purl.org/dc/elements/1.1/"
   xmlns:cc="http://creativecommons.org/ns#"
   xmlns:rdf="http://www.w3.org/1999/02/22-rdf-syntax-ns#"
   xmlns:svg="http://www.w3.org/2000/svg"
   xmlns="http://www.w3.org/2000/svg"
   xmlns:xlink="http://www.w3.org/1999/xlink"
   xmlns:sodipodi="http://sodipodi.sourceforge.net/DTD/sodipodi-0.dtd"
   xmlns:inkscape="http://www.inkscape.org/namespaces/inkscape"
   width="64"
   height="64"
   id="svg2"
   sodipodi:version="0.32"
   inkscape:version="0.46"
   version="1.0"
   sodipodi:docname="playfile.svg"
   inkscape:output_extension="org.inkscape.output.svg.inkscape"
   inkscape:export-filename="/home/andres/src/qutecsound/trunk/qutecsound/images/playfile.png"
   inkscape:export-xdpi="45"
   inkscape:export-ydpi="45">
  <defs
     id="defs4">
    <inkscape:perspective
       id="perspective2543"
       inkscape:persp3d-origin="363.99159 : 1253.4942 : 1"
       inkscape:vp_z="736.03883 : 1428.888 : 1"
       inkscape:vp_y="6.1230318e-14 : 1000 : 0"
       inkscape:vp_x="-8.0556529 : 1428.888 : 1"
       sodipodi:type="inkscape:persp3d" />
    <inkscape:perspective
       sodipodi:type="inkscape:persp3d"
       inkscape:vp_x="0 : 526.18109 : 1"
       inkscape:vp_y="6.1230318e-14 : 1000 : 0"
       inkscape:vp_z="744.09448 : 526.18109 : 1"
       inkscape:persp3d-origin="372.04724 : 350.78739 : 1"
       id="perspective10" />
    <inkscape:perspective
       sodipodi:type="inkscape:persp3d"
       inkscape:vp_x="0 : 15 : 1"
       inkscape:vp_y="0 : 1000 : 0"
       inkscape:vp_z="30 : 15 : 1"
       inkscape:persp3d-origin="15 : 10 : 1"
       id="perspective2520" />
    <linearGradient
       x1="0.00000000"
       y1="0.00000000"
       x2="1.00000000"
       y2="0.00000000"
       id="linearGradient556"
       gradientUnits="objectBoundingBox"
       spreadMethod="pad">
      <stop
         style="stop-color:#ff8700;stop-opacity:1;"
         offset="0.00000000"
         id="stop557" />
      <stop
         style="stop-color:#ffff8d;stop-opacity:0;"
         offset="1.00000000"
         id="stop558" />
    </linearGradient>
    <linearGradient
       x1="0.00000000"
       y1="0.00000000"
       x2="1.00000000"
       y2="0.00000000"
       id="linearGradient559"
       xlink:href="#linearGradient556"
       gradientUnits="objectBoundingBox"
       spreadMethod="pad" />
    <sodipodi:namedview
       id="namedview852"
       inkscape:zoom="9.65625000"
       inkscape:cx="16.0000000"
       inkscape:cy="28.4271845"
       inkscape:window-width="1014"
       inkscape:window-height="696"
       inkscape:window-x="0"
       inkscape:window-y="0" />
    <defs
       id="defs853">
      <linearGradient
         x1="0.00000000"
         y1="0.00000000"
         x2="1.00000000"
         y2="0.00000000"
         id="linearGradient854"
         gradientUnits="objectBoundingBox"
         spreadMethod="pad">
        <stop
           style="stop-color:#ff8700;stop-opacity:1;"
           offset="0.00000000"
           id="stop855" />
        <stop
           style="stop-color:#ffff8d;stop-opacity:0;"
           offset="1.00000000"
           id="stop856" />
      </linearGradient>
      <linearGradient
         x1="0.00000000"
         y1="0.00000000"
         x2="1.00000000"
         y2="0.00000000"
         id="linearGradient857"
         xlink:href="#linearGradient556"
         gradientUnits="objectBoundingBox"
         spreadMethod="pad" />
    </defs>
    <inkscape:perspective
       sodipodi:type="inkscape:persp3d"
       inkscape:vp_x="0 : 526.18109 : 1"
       inkscape:vp_y="0 : 1000 : 0"
       inkscape:vp_z="744.09448 : 526.18109 : 1"
       inkscape:persp3d-origin="372.04724 : 350.78739 : 1"
       id="perspective2456" />
    <inkscape:perspective
       id="perspective2494"
       inkscape:persp3d-origin="372.04724 : 350.78739 : 1"
       inkscape:vp_z="744.09448 : 526.18109 : 1"
       inkscape:vp_y="6.1230318e-14 : 1000 : 0"
       inkscape:vp_x="0 : 526.18109 : 1"
       sodipodi:type="inkscape:persp3d" />
  </defs>
  <sodipodi:namedview
     id="base"
     pagecolor="#ffffff"
     bordercolor="#666666"
     borderopacity="1.0"
     inkscape:pageopacity="0.0"
     inkscape:pageshadow="2"
     inkscape:zoom="3.959798"
     inkscape:cx="41.316107"
     inkscape:cy="19.011522"
     inkscape:document-units="px"
     inkscape:current-layer="layer1"
     showgrid="false"
     inkscape:window-width="1094"
     inkscape:window-height="730"
     inkscape:window-x="133"
     inkscape:window-y="232" />
  <metadata
     id="metadata7">
    <rdf:RDF>
      <cc:Work
         rdf:about="">
        <dc:format>image/svg+xml</dc:format>
        <dc:type
           rdf:resource="http://purl.org/dc/dcmitype/StillImage" />
      </cc:Work>
    </rdf:RDF>
  </metadata>
  <g
     inkscape:label="Capa 1"
     inkscape:groupmode="layer"
     id="layer1">
    <g
       sodipodi:type="inkscape:box3d"
       style="opacity:0.87878789;fill:#808000;fill-opacity:0;fill-rule:nonzero;stroke:#c9ae15;stroke-width:4.99606276;stroke-linecap:butt;stroke-linejoin:miter;stroke-miterlimit:4;stroke-dasharray:none;stroke-dashoffset:0;stroke-opacity:1"
       id="g2383"
       inkscape:perspectiveID="#perspective10"
       inkscape:corner0="69.1539 : -4.0528513 : 0 : 1"
       inkscape:corner7="7.3233441 : -33.31897 : 0.25 : 1">
      <path
         sodipodi:type="inkscape:box3dside"
         id="path2393"
         style="fill:#afafde;fill-rule:evenodd;stroke:none;stroke-width:1px;stroke-linecap:butt;stroke-linejoin:round;stroke-opacity:1"
         inkscape:box3dsidetype="13"
         d="M 5.3033009,15.260131 L 44.69925,3561.9663 L 65.09372,3444.6216 L 7.9267038,13.564766 L 5.3033009,15.260131 z" />
      <path
         sodipodi:type="inkscape:box3dside"
         id="path2385"
         style="fill:#353564;fill-rule:evenodd;stroke:none;stroke-width:1px;stroke-linecap:butt;stroke-linejoin:round;stroke-opacity:1"
         inkscape:box3dsidetype="6"
         d="M 5.3033009,-401.9101 L 5.3033009,15.260131 L 7.9267038,13.564766 L 7.9267038,-402.12412 L 5.3033009,-401.9101 z" />
      <path
         sodipodi:type="inkscape:box3dside"
         id="path2395"
         style="fill:#e9e9ff;fill-rule:evenodd;stroke:none;stroke-width:1px;stroke-linecap:butt;stroke-linejoin:round;stroke-opacity:1"
         inkscape:box3dsidetype="11"
         d="M 7.9267038,-402.12412 L 65.09372,31.003944 L 65.09372,3444.6216 L 7.9267038,13.564766 L 7.9267038,-402.12412 z" />
      <path
         sodipodi:type="inkscape:box3dside"
         id="path2387"
         style="fill:#4d4d9f;fill-rule:evenodd;stroke:none;stroke-width:1px;stroke-linecap:butt;stroke-linejoin:round;stroke-opacity:1"
         inkscape:box3dsidetype="5"
         d="M 5.3033009,-401.9101 L 44.69925,45.817252 L 65.09372,31.003944 L 7.9267038,-402.12412 L 5.3033009,-401.9101 z" />
      <path
         sodipodi:type="inkscape:box3dside"
         id="path2391"
         style="fill:#d7d7ff;fill-rule:evenodd;stroke:none;stroke-width:1px;stroke-linecap:butt;stroke-linejoin:round;stroke-opacity:1"
         inkscape:box3dsidetype="14"
         d="M 44.69925,45.817252 L 44.69925,3561.9663 L 65.09372,3444.6216 L 65.09372,31.003944 L 44.69925,45.817252 z" />
      <path
         sodipodi:type="inkscape:box3dside"
         id="path2389"
         style="fill:#8686bf;fill-rule:evenodd;stroke:none;stroke-width:1px;stroke-linecap:butt;stroke-linejoin:round;stroke-opacity:1"
         inkscape:box3dsidetype="3"
         d="M 5.3033009,-401.9101 L 44.69925,45.817252 L 44.69925,3561.9663 L 5.3033009,15.260131 L 5.3033009,-401.9101 z" />
    </g>
    <g
       sodipodi:type="inkscape:box3d"
       style="opacity:0.87878789;fill:#808000;fill-opacity:0;fill-rule:nonzero;stroke:#c9ae15;stroke-width:4.99606276;stroke-linecap:butt;stroke-linejoin:miter;stroke-miterlimit:4;stroke-dasharray:none;stroke-dashoffset:0;stroke-opacity:1"
       id="g2510"
       inkscape:perspectiveID="#perspective10"
       inkscape:corner0="69.1539 : -4.0528513 : 0 : 1"
       inkscape:corner7="7.3233441 : -33.31897 : 0.25 : 1">
      <path
         sodipodi:type="inkscape:box3dside"
         id="path2512"
         style="fill:#afafde;fill-rule:evenodd;stroke:none;stroke-width:1px;stroke-linecap:butt;stroke-linejoin:round;stroke-opacity:1"
         inkscape:box3dsidetype="13"
         d="M 5.3033009,15.260131 L 44.69925,3561.9663 L 65.09372,3444.6216 L 7.9267038,13.564766 L 5.3033009,15.260131 z" />
      <path
         sodipodi:type="inkscape:box3dside"
         id="path2514"
         style="fill:#353564;fill-rule:evenodd;stroke:none;stroke-width:1px;stroke-linecap:butt;stroke-linejoin:round;stroke-opacity:1"
         inkscape:box3dsidetype="6"
         d="M 5.3033009,-401.9101 L 5.3033009,15.260131 L 7.9267038,13.564766 L 7.9267038,-402.12412 L 5.3033009,-401.9101 z" />
      <path
         sodipodi:type="inkscape:box3dside"
         id="path2516"
         style="fill:#e9e9ff;fill-rule:evenodd;stroke:none;stroke-width:1px;stroke-linecap:butt;stroke-linejoin:round;stroke-opacity:1"
         inkscape:box3dsidetype="11"
         d="M 7.9267038,-402.12412 L 65.09372,31.003944 L 65.09372,3444.6216 L 7.9267038,13.564766 L 7.9267038,-402.12412 z" />
      <path
         sodipodi:type="inkscape:box3dside"
         id="path2518"
         style="fill:#4d4d9f;fill-rule:evenodd;stroke:none;stroke-width:1px;stroke-linecap:butt;stroke-linejoin:round;stroke-opacity:1"
         inkscape:box3dsidetype="5"
         d="M 5.3033009,-401.9101 L 44.69925,45.817252 L 65.09372,31.003944 L 7.9267038,-402.12412 L 5.3033009,-401.9101 z" />
      <path
         sodipodi:type="inkscape:box3dside"
         id="path2520"
         style="fill:#d7d7ff;fill-rule:evenodd;stroke:none;stroke-width:1px;stroke-linecap:butt;stroke-linejoin:round;stroke-opacity:1"
         inkscape:box3dsidetype="14"
         d="M 44.69925,45.817252 L 44.69925,3561.9663 L 65.09372,3444.6216 L 65.09372,31.003944 L 44.69925,45.817252 z" />
      <path
         sodipodi:type="inkscape:box3dside"
         id="path2522"
         style="fill:#8686bf;fill-rule:evenodd;stroke:none;stroke-width:1px;stroke-linecap:butt;stroke-linejoin:round;stroke-opacity:1"
         inkscape:box3dsidetype="3"
         d="M 5.3033009,-401.9101 L 44.69925,45.817252 L 44.69925,3561.9663 L 5.3033009,15.260131 L 5.3033009,-401.9101 z" />
    </g>
    <g
       id="g2543"
       transform="matrix(0.7136294,0,0,0.7136294,22.822287,0.8727936)">
      <path
         sodipodi:nodetypes="ccccccc"
         id="path590"
         d="M 53.389667,4.1252803 L 54.001275,26.783542 C 54.182167,38.036979 54.298094,44.922064 54.078155,59.897481 L 9.6587918,60.725615 C 8.739536,46.115208 8.4664843,40.548753 8.8920365,27.544213 C 9.4045021,18.234212 9.0802767,17.127731 9.9630528,4.9135685 C 9.4447067,3.93379 51.575004,0.55043863 53.389667,4.1252803 z"
         style="fill:#000080;fill-rule:evenodd;stroke-width:1pt" />
      <path
         sodipodi:nodetypes="ccccccc"
         id="path903"
         d="M 50.100343,8.8107664 L 50.616796,27.943684 C 50.769542,37.446225 50.867433,43.260077 50.681714,55.905501 L 13.173454,56.604794 C 12.397223,44.267582 12.166655,39.567198 12.525995,28.586003 C 12.958727,20.724525 12.684948,19.790201 13.430374,9.4764084 C 12.992677,8.6490704 48.568022,5.7921271 50.100343,8.8107664 z"
         style="fill:#00ffff;fill-opacity:1;fill-rule:evenodd;stroke-width:1pt" />
      <path
         sodipodi:nodetypes="ccssssss"
         id="path592"
         d="M 51.200427,56.381707 L 13.174448,57.005971 C 13.033192,55.81455 12.357297,52.548472 12.30576,48.967974 C 12.25421,45.38748 12.191343,38.882716 12.191002,38.794821 C 12.190319,38.619021 15.312411,39.5949 16.174739,42.018919 C 17.094133,44.765424 16.106442,50.974911 16.897172,50.972979 L 50.945861,50.889844 C 51.165807,50.889306 51.872712,56.370671 51.200427,56.381707 z"
         style="fill:#008080;fill-rule:evenodd;stroke-width:1pt" />
      <path
         sodipodi:nodetypes="ccssssss"
         id="path904"
         d="M 13.193814,7.9705037 L 50.238294,7.1207077 C 50.373889,8.7425587 50.480309,13.188578 50.529784,18.062605 C 50.579265,22.936634 50.639613,31.791384 50.63994,31.911036 C 50.640598,32.150343 47.643624,30.821909 46.81585,27.522163 C 45.933304,23.783421 46.881414,15.330623 46.122372,15.333253 L 13.438181,15.446423 C 13.227047,15.447151 12.54847,7.9853057 13.193814,7.9705037 z"
         style="fill:#ffffff;fill-opacity:1;fill-rule:evenodd;stroke-width:1pt" />
      <path
         sodipodi:nodetypes="css"
         id="path5409"
         d="M 16.624837,23.643481 C 22.07712,6.6808219 26.082764,7.7014169 30.760387,21.826054 C 35.912117,37.382316 42.145589,29.935225 45.780445,18.828721"
         style="fill:none;fill-rule:evenodd;stroke:#000000;stroke-width:3.39253211;stroke-linecap:round;stroke-linejoin:miter;stroke-miterlimit:4;stroke-dasharray:none;stroke-opacity:1" />
    </g>
    <g
       transform="matrix(-1.2361306,1.6968313,1.6968313,1.2361306,36.681435,-95.756963)"
       style="font-size:12px"
       id="g584">
      <path
         d="M 51.9665,36.0486 C 53.9602,37.0454 65.4724,34.7713 65.7572,32.6353 C 66.172581,27.312501 55.6307,20.7151 54.0642,20.1455 C 52.4977,19.5759 51.1121,20.0634 50.6849,21.0602 C 50.2577,22.057 49.6881,35.3365 51.9665,36.0486 z"
         transform="matrix(1.369638,0,0,1.207417,-21.85404,-4.997635)"
         style="fill:#0d3c07;fill-rule:evenodd;stroke-width:1pt"
         id="path582"
         sodipodi:nodetypes="ccscc" />
      <path
         d="M 51.5506,35.4589 C 53.5443,36.4557 64.2247,34.8892 64.5095,32.7532 C 64.7943,30.6171 60.955464,29.668153 61.382664,28.244153 C 57.018216,23.149473 50.6962,21.3608 50.269,22.3576 C 49.8418,23.3544 49.2722,34.7468 51.5506,35.4589 z"
         style="fill:#2aaf18;fill-rule:evenodd;stroke-width:1pt"
         id="path581"
         sodipodi:nodetypes="ccccc" />
      <path
         d="M 61.9462,28.3386 C 63.5126,29.6202 65.3639,32.7531 64.3671,33.6076 C 62.6583,35.174 52.8323,36.3133 51.693,35.7437 C 50.5538,35.174 60.0949,33.4652 60.2373,31.0443 C 60.3797,28.6234 57.458082,27.995128 58.312482,26.571028 C 59.166882,25.147028 61.519,27.769 61.9462,28.3386 z"
         style="fill:#208c11;fill-rule:evenodd;stroke-width:1pt"
         id="path583"
         sodipodi:nodetypes="cccccc" />
    </g>
  </g>
</svg>
