<?xml version="1.0" encoding="UTF-8" standalone="no"?>
<svg
   xmlns:dc="http://purl.org/dc/elements/1.1/"
   xmlns:cc="http://creativecommons.org/ns#"
   xmlns:rdf="http://www.w3.org/1999/02/22-rdf-syntax-ns#"
   xmlns:svg="http://www.w3.org/2000/svg"
   xmlns="http://www.w3.org/2000/svg"
   xmlns:sodipodi="http://sodipodi.sourceforge.net/DTD/sodipodi-0.dtd"
   xmlns:inkscape="http://www.inkscape.org/namespaces/inkscape"
   height="354pt"
   viewBox="0 -47 354.98667 354"
   width="354pt"
   version="1.1"
   id="svg24"
   sodipodi:docname="sound-waves-edit2.svg"
   inkscape:version="0.92.4 (5da689c313, 2019-01-14)"
   inkscape:export-filename="/home/em/tmp/csounqt-icons/sound-waves-edit2.svg.png"
   inkscape:export-xdpi="6.5100002"
   inkscape:export-ydpi="6.5100002">
  <metadata
     id="metadata30">
    <rdf:RDF>
      <cc:Work
         rdf:about="">
        <dc:format>image/svg+xml</dc:format>
        <dc:type
           rdf:resource="http://purl.org/dc/dcmitype/StillImage" />
        <dc:title />
      </cc:Work>
    </rdf:RDF>
  </metadata>
  <defs
     id="defs28" />
  <sodipodi:namedview
     pagecolor="#ffffff"
     bordercolor="#666666"
     borderopacity="1"
     objecttolerance="10"
     gridtolerance="10"
     guidetolerance="10"
     inkscape:pageopacity="0"
     inkscape:pageshadow="2"
     inkscape:window-width="1920"
     inkscape:window-height="1058"
     id="namedview26"
     showgrid="false"
     inkscape:zoom="0.35355339"
     inkscape:cx="-425.61534"
     inkscape:cy="-6.8378256"
     inkscape:window-x="0"
     inkscape:window-y="22"
     inkscape:window-maximized="1"
     inkscape:current-layer="g920" />
  <path
     d="M 7.5184954,170.58263 C 3.363538,170.58263 0,173.63732 0,177.40685 v 34.13281 c 0,3.77344 3.363538,6.82813 7.5184954,6.82813 4.1506566,0 7.5141946,-3.05469 7.5141946,-6.82813 v -34.13281 c 0,-3.76953 -3.363538,-6.82422 -7.5141946,-6.82422 z m 0,0"
     id="path2"
     inkscape:connector-curvature="0"
     style="stroke-width:1.04933643;stroke:none" />
  <path
     d="m 45.128177,142.62952 c -4.150656,0 -7.518495,3.05859 -7.518495,6.82812 v 94.51562 c 0,3.77343 3.367839,6.82812 7.518495,6.82812 4.150657,0 7.518496,-3.05469 7.518496,-6.82812 v -94.51562 c 0,-3.76953 -3.367839,-6.82812 -7.518496,-6.82812 z m 0,0"
     id="path4"
     inkscape:connector-curvature="0"
     style="stroke-width:1.04933643;stroke:none" />
  <path
     d="m 82.686245,95.488926 c -4.150656,0 -7.518495,3.054688 -7.518495,6.824214 v 191.1484 c 0,3.76953 3.367839,6.82812 7.518495,6.82812 4.150657,0 7.518496,-3.05859 7.518496,-6.82812 v -191.1484 c 0,-3.769526 -3.367839,-6.824214 -7.518496,-6.824214 z m 0,0"
     id="path6"
     inkscape:connector-curvature="0"
     style="stroke-width:1.04933643;stroke:none" />
  <path
     d="m 120.27012,129.62172 c -4.15066,0 -7.51849,3.05468 -7.51849,6.82812 V 252.5006 c 0,3.76953 3.36783,6.82813 7.51849,6.82813 4.15065,0 7.5185,-3.0586 7.5185,-6.82813 V 136.44984 c 0,-3.77344 -3.36785,-6.82812 -7.5185,-6.82812 z m 0,0"
     id="path8"
     inkscape:connector-curvature="0"
     style="stroke-width:1.04933643;stroke:none" />
  <path
     d="m 233.75725,139.15298 c -4.15065,0 -7.51419,2.10277 -7.51419,4.7003 v 105.72705 c 0,2.59484 3.36354,4.69761 7.51419,4.69761 4.15066,0 7.51849,-2.10277 7.51849,-4.69761 V 143.85328 c 0,-2.59753 -3.36783,-4.7003 -7.51849,-4.7003 z m 0,0"
     id="path10"
     inkscape:connector-curvature="0"
     style="stroke-width:0.8706159;stroke:none" />
  <path
     d="m 308.19379,122.7936 c -4.15065,0 -7.51849,3.05859 -7.51849,6.82812 v 136.53122 c 0,3.77344 3.36784,6.82813 7.51849,6.82813 4.15066,0 7.5142,-3.05469 7.5142,-6.82813 V 129.62172 c 0,-3.76953 -3.36354,-6.82812 -7.5142,-6.82812 z m 0,0"
     id="path12"
     inkscape:connector-curvature="0"
     style="stroke-width:1.04933643;stroke:none" />
  <path
     d="m 345.77767,156.92639 c -4.15066,0 -7.51849,3.05859 -7.51849,6.82812 v 68.26562 c 0,3.76953 3.36783,6.82813 7.51849,6.82813 4.15065,0 7.51419,-3.0586 7.51419,-6.82813 v -68.26562 c 0,-3.76953 -3.36354,-6.82812 -7.51419,-6.82812 z m 0,0"
     id="path14"
     inkscape:connector-curvature="0"
     style="stroke-width:1.04933643;stroke:none" />
  <path
     d="m 270.60992,105.4069 c -4.15496,0 -7.5185,2.0679 -7.5185,4.61646 v 166.15541 c 0,2.5512 3.36354,4.61646 7.5185,4.61646 4.15066,0 7.5142,-2.06526 7.5142,-4.61646 V 110.02336 c 0,-2.54856 -3.36354,-4.61646 -7.5142,-4.61646 z m 0,0"
     id="path16"
     inkscape:connector-curvature="0"
     style="stroke-width:0.86281639;stroke:none" />
  <path
     d="m 157.85399,177.40685 c -4.15066,0 -7.51419,3.05859 -7.51419,6.82813 v 27.30468 c 0,3.77344 3.36353,6.82813 7.51419,6.82813 4.15067,0 7.5185,-3.05469 7.5185,-6.82813 v -27.30468 c 0,-3.76954 -3.36783,-6.82813 -7.5185,-6.82813 z m 0,0"
     id="path18"
     inkscape:connector-curvature="0"
     style="stroke-width:1.04933643;stroke:none" />
  <path
     d="m 194.73247,162.10607 c -4.15496,0 -7.51849,3.05469 -7.51849,6.82422 v 55.57031 c 0,3.76953 3.36353,6.82813 7.51849,6.82813 4.15066,0 7.5142,-3.0586 7.5142,-6.82813 v -55.57031 c 0,-3.76953 -3.36354,-6.82422 -7.5142,-6.82422 z m 0,0"
     id="path22"
     inkscape:connector-curvature="0"
     style="stroke-width:1.04933643;stroke:none" />
  <g
     id="g915"
     transform="translate(-0.53180822,11.699781)">
    <g
       transform="translate(0,27.075257)"
       id="g909">
      <g
         id="g920"
         transform="matrix(1.7416178,0,0,1.7416178,-131.86285,2.4268683)">
        <g
           id="g837"
           transform="translate(2.5910061,0.86366871)"
           style="stroke:none">
          <path
             inkscape:connector-curvature="0"
             id="path10-3"
             d="M 169.71952,-50.771964 V 50.145023 c 0,2.53116 3.05463,4.582399 6.82416,4.582399 3.76953,0 6.82838,-2.051239 6.82838,-4.582399 V -50.771964 Z"
             style="opacity:1;stroke-width:0.81943858;stroke:none" />
          <path
             style="opacity:1;stroke-width:1;stroke:none"
             d="M 134.90212,0.85933909 C 132.05729,3.3384066 131.7612,7.6482259 134.2377,10.490109 l 36.50849,41.89498 c 2.47651,2.841884 6.78889,3.140932 9.63372,0.661864 2.84188,-2.4765 3.13541,-6.789272 0.65892,-9.631157 L 144.53033,1.5208172 c -2.4765,-2.8418854 -6.78633,-3.1379781 -9.62821,-0.66147811 z m 0,0"
             id="path22-6"
             inkscape:connector-curvature="0" />
          <path
             style="opacity:1;stroke-width:1;stroke:none"
             d="m 218.46304,0.85933839 c 2.84483,2.47906801 3.14092,6.78888701 0.66442,9.63076961 L 182.61897,52.38509 c -2.47651,2.841884 -6.78889,3.140931 -9.63372,0.661863 -2.84188,-2.4765 -3.13541,-6.789272 -0.65892,-9.631157 l 36.5085,-41.8949796 c 2.4765,-2.841885 6.78633,-3.137978 9.62821,-0.66147801 z m 0,0"
             id="path22-6-7"
             inkscape:connector-curvature="0" />
        </g>
      </g>
    </g>
  </g>
</svg>
