<?xml version="1.0" encoding="UTF-8" standalone="no"?>
<!-- Created with Sodipodi ("http://www.sodipodi.com/") -->
<svg
   xmlns:dc="http://purl.org/dc/elements/1.1/"
   xmlns:cc="http://creativecommons.org/ns#"
   xmlns:rdf="http://www.w3.org/1999/02/22-rdf-syntax-ns#"
   xmlns:svg="http://www.w3.org/2000/svg"
   xmlns="http://www.w3.org/2000/svg"
   xmlns:xlink="http://www.w3.org/1999/xlink"
   xmlns:sodipodi="http://sodipodi.sourceforge.net/DTD/sodipodi-0.dtd"
   xmlns:inkscape="http://www.inkscape.org/namespaces/inkscape"
   id="svg548"
   sodipodi:version="0.32"
   width="64"
   height="64"
   sodipodi:docbase="/home/zeus/Desktop/icons/gartoon/svg"
   sodipodi:docname="editfile.svg"
   inkscape:version="0.46"
   inkscape:output_extension="org.inkscape.output.svg.inkscape"
   version="1.0"
   inkscape:export-filename="/home/andres/src/qutecsound/trunk/qutecsound/images/editfile.png"
   inkscape:export-xdpi="45"
   inkscape:export-ydpi="45">
  <metadata
     id="metadata4454">
    <rdf:RDF>
      <cc:Work
         rdf:about="">
        <dc:format>image/svg+xml</dc:format>
        <dc:type
           rdf:resource="http://purl.org/dc/dcmitype/StillImage" />
      </cc:Work>
    </rdf:RDF>
  </metadata>
  <defs
     id="defs550">
    <inkscape:perspective
       sodipodi:type="inkscape:persp3d"
       inkscape:vp_x="107.53434 : 519.44788 : 1"
       inkscape:vp_y="6.1230318e-14 : 1000 : 0"
       inkscape:vp_z="851.62882 : 519.44788 : 1"
       inkscape:persp3d-origin="479.58158 : 344.05418 : 1"
       id="perspective13326" />
    <inkscape:perspective
       sodipodi:type="inkscape:persp3d"
       inkscape:vp_x="107.53434 : 519.44788 : 1"
       inkscape:vp_y="6.1230318e-14 : 1000 : 0"
       inkscape:vp_z="851.62882 : 519.44788 : 1"
       inkscape:persp3d-origin="479.58158 : 344.05418 : 1"
       id="perspective13317" />
    <inkscape:perspective
       sodipodi:type="inkscape:persp3d"
       inkscape:vp_x="0 : 45 : 1"
       inkscape:vp_y="0 : 1000 : 0"
       inkscape:vp_z="90 : 45 : 1"
       inkscape:persp3d-origin="45 : 30 : 1"
       id="perspective4456" />
    <linearGradient
       id="linearGradient554">
      <stop
         style="stop-color:#666565;stop-opacity:1;"
         offset="0.000000"
         id="stop555" />
      <stop
         style="stop-color:#ffffff;stop-opacity:1;"
         offset="1.000000"
         id="stop556" />
    </linearGradient>
    <linearGradient
       xlink:href="#linearGradient554"
       id="linearGradient557"
       x1="12.9236"
       y1="79.96035"
       x2="8.3357515"
       y2="72.29023"
       gradientUnits="userSpaceOnUse"
       spreadMethod="pad"
       gradientTransform="matrix(0.940577,-0.5429624,0.428431,0.7508279,69.158794,74.029477)" />
    <linearGradient
       xlink:href="#linearGradient554"
       id="linearGradient559"
       x1="7.798367"
       y1="68.656029"
       x2="12.994576"
       y2="78.428917"
       gradientUnits="userSpaceOnUse"
       spreadMethod="pad"
       gradientTransform="matrix(0.7018935,-0.4051791,0.319711,0.5602958,79.830214,86.971207)" />
    <linearGradient
       xlink:href="#linearGradient554"
       id="linearGradient563" />
    <defs
       id="defs573">
      <linearGradient
         id="linearGradient604">
        <stop
           id="stop606"
           style="stop-color:#666565;stop-opacity:1;"
           offset="0.000000" />
        <stop
           id="stop605"
           style="stop-color:#ffffff;stop-opacity:1;"
           offset="1.000000" />
      </linearGradient>
      <linearGradient
         id="linearGradient600">
        <stop
           id="stop601"
           offset="0"
           style="stop-color:#000;stop-opacity:1;" />
        <stop
           id="stop602"
           offset="1"
           style="stop-color:#fff;stop-opacity:1;" />
      </linearGradient>
      <linearGradient
         gradientTransform="scale(0.994399,1.005632)"
         spreadMethod="pad"
         gradientUnits="userSpaceOnUse"
         y2="14.15477"
         x2="79.628151"
         y1="28.657213"
         x1="61.04689"
         id="linearGradient603"
         xlink:href="#linearGradient604" />
    </defs>
    <sodipodi:namedview
       id="namedview799" />
    <linearGradient
       inkscape:collect="always"
       xlink:href="#linearGradient604"
       id="linearGradient12974"
       gradientUnits="userSpaceOnUse"
       gradientTransform="matrix(-0.9442873,0,0,0.9549542,89.029636,-1.362095)"
       spreadMethod="pad"
       x1="61.04689"
       y1="28.657213"
       x2="79.628151"
       y2="14.15477" />
    <inkscape:perspective
       sodipodi:type="inkscape:persp3d"
       inkscape:vp_x="0 : 526.18109 : 1"
       inkscape:vp_y="6.1230318e-14 : 1000 : 0"
       inkscape:vp_z="744.09448 : 526.18109 : 1"
       inkscape:persp3d-origin="372.04724 : 350.78739 : 1"
       id="perspective2494" />
    <inkscape:perspective
       id="perspective2456"
       inkscape:persp3d-origin="372.04724 : 350.78739 : 1"
       inkscape:vp_z="744.09448 : 526.18109 : 1"
       inkscape:vp_y="0 : 1000 : 0"
       inkscape:vp_x="0 : 526.18109 : 1"
       sodipodi:type="inkscape:persp3d" />
    <defs
       id="defs853">
      <linearGradient
         spreadMethod="pad"
         gradientUnits="objectBoundingBox"
         id="linearGradient854"
         y2="0"
         x2="1"
         y1="0"
         x1="0">
        <stop
           id="stop855"
           offset="0.00000000"
           style="stop-color:#ff8700;stop-opacity:1;" />
        <stop
           id="stop856"
           offset="1.00000000"
           style="stop-color:#ffff8d;stop-opacity:0;" />
      </linearGradient>
      <linearGradient
         spreadMethod="pad"
         gradientUnits="objectBoundingBox"
         xlink:href="#linearGradient556"
         id="linearGradient857"
         y2="0"
         x2="1"
         y1="0"
         x1="0" />
    </defs>
    <sodipodi:namedview
       inkscape:window-y="0"
       inkscape:window-x="0"
       inkscape:window-height="696"
       inkscape:window-width="1014"
       inkscape:cy="28.4271845"
       inkscape:cx="16.0000000"
       inkscape:zoom="9.65625000"
       id="namedview852" />
    <linearGradient
       spreadMethod="pad"
       gradientUnits="objectBoundingBox"
       xlink:href="#linearGradient556"
       id="linearGradient13265"
       y2="0"
       x2="1"
       y1="0"
       x1="0" />
    <linearGradient
       spreadMethod="pad"
       gradientUnits="objectBoundingBox"
       id="linearGradient556"
       y2="0"
       x2="1"
       y1="0"
       x1="0">
      <stop
         id="stop557"
         offset="0.00000000"
         style="stop-color:#ff8700;stop-opacity:1;" />
      <stop
         id="stop558"
         offset="1.00000000"
         style="stop-color:#ffff8d;stop-opacity:0;" />
    </linearGradient>
    <inkscape:perspective
       id="perspective2520"
       inkscape:persp3d-origin="15 : 10 : 1"
       inkscape:vp_z="30 : 15 : 1"
       inkscape:vp_y="0 : 1000 : 0"
       inkscape:vp_x="0 : 15 : 1"
       sodipodi:type="inkscape:persp3d" />
    <inkscape:perspective
       id="perspective10"
       inkscape:persp3d-origin="372.04724 : 350.78739 : 1"
       inkscape:vp_z="744.09448 : 526.18109 : 1"
       inkscape:vp_y="6.1230318e-14 : 1000 : 0"
       inkscape:vp_x="0 : 526.18109 : 1"
       sodipodi:type="inkscape:persp3d" />
    <inkscape:perspective
       sodipodi:type="inkscape:persp3d"
       inkscape:vp_x="-8.0556529 : 1428.888 : 1"
       inkscape:vp_y="6.1230318e-14 : 1000 : 0"
       inkscape:vp_z="736.03883 : 1428.888 : 1"
       inkscape:persp3d-origin="363.99159 : 1253.4942 : 1"
       id="perspective2543" />
    <linearGradient
       inkscape:collect="always"
       xlink:href="#linearGradient554"
       id="linearGradient13341"
       gradientUnits="userSpaceOnUse"
       gradientTransform="matrix(0.940577,-0.5429624,0.428431,0.7508279,69.158794,74.029477)"
       spreadMethod="pad"
       x1="12.9236"
       y1="79.96035"
       x2="8.3357515"
       y2="72.29023" />
    <linearGradient
       inkscape:collect="always"
       xlink:href="#linearGradient554"
       id="linearGradient13343"
       gradientUnits="userSpaceOnUse"
       gradientTransform="matrix(0.7018935,-0.4051791,0.319711,0.5602958,79.830214,86.971207)"
       spreadMethod="pad"
       x1="7.798367"
       y1="68.656029"
       x2="12.994576"
       y2="78.428917" />
  </defs>
  <sodipodi:namedview
     id="base"
     showgrid="false"
     inkscape:zoom="2.7444444"
     inkscape:cx="86.554338"
     inkscape:cy="22.070995"
     inkscape:window-width="851"
     inkscape:window-height="719"
     inkscape:window-x="5"
     inkscape:window-y="226"
     inkscape:current-layer="svg548" />
  <g
     sodipodi:type="inkscape:box3d"
     style="opacity:0.87878789;fill:#808000;fill-opacity:0;fill-rule:nonzero;stroke:#c9ae15;stroke-width:4.99606276;stroke-linecap:butt;stroke-linejoin:miter;stroke-miterlimit:4;stroke-dasharray:none;stroke-dashoffset:0;stroke-opacity:1"
     id="g2383"
     inkscape:perspectiveID="#perspective10"
     inkscape:corner0="69.1539 : -4.0528513 : 0 : 1"
     inkscape:corner7="7.3233441 : -33.31897 : 0.25 : 1">
    <path
       sodipodi:type="inkscape:box3dside"
       id="path2393"
       style="fill:#afafde;fill-rule:evenodd;stroke:none;stroke-width:1px;stroke-linecap:butt;stroke-linejoin:round;stroke-opacity:1"
       inkscape:box3dsidetype="13"
       d="M 5.3033009,15.260131 L 44.69925,3561.9663 L 65.09372,3444.6216 L 7.9267038,13.564766 L 5.3033009,15.260131 z" />
    <path
       sodipodi:type="inkscape:box3dside"
       id="path2385"
       style="fill:#353564;fill-rule:evenodd;stroke:none;stroke-width:1px;stroke-linecap:butt;stroke-linejoin:round;stroke-opacity:1"
       inkscape:box3dsidetype="6"
       d="M 5.3033009,-401.9101 L 5.3033009,15.260131 L 7.9267038,13.564766 L 7.9267038,-402.12412 L 5.3033009,-401.9101 z" />
    <path
       sodipodi:type="inkscape:box3dside"
       id="path2395"
       style="fill:#e9e9ff;fill-rule:evenodd;stroke:none;stroke-width:1px;stroke-linecap:butt;stroke-linejoin:round;stroke-opacity:1"
       inkscape:box3dsidetype="11"
       d="M 7.9267038,-402.12412 L 65.09372,31.003944 L 65.09372,3444.6216 L 7.9267038,13.564766 L 7.9267038,-402.12412 z" />
    <path
       sodipodi:type="inkscape:box3dside"
       id="path2387"
       style="fill:#4d4d9f;fill-rule:evenodd;stroke:none;stroke-width:1px;stroke-linecap:butt;stroke-linejoin:round;stroke-opacity:1"
       inkscape:box3dsidetype="5"
       d="M 5.3033009,-401.9101 L 44.69925,45.817252 L 65.09372,31.003944 L 7.9267038,-402.12412 L 5.3033009,-401.9101 z" />
    <path
       sodipodi:type="inkscape:box3dside"
       id="path2391"
       style="fill:#d7d7ff;fill-rule:evenodd;stroke:none;stroke-width:1px;stroke-linecap:butt;stroke-linejoin:round;stroke-opacity:1"
       inkscape:box3dsidetype="14"
       d="M 44.69925,45.817252 L 44.69925,3561.9663 L 65.09372,3444.6216 L 65.09372,31.003944 L 44.69925,45.817252 z" />
    <path
       sodipodi:type="inkscape:box3dside"
       id="path2389"
       style="fill:#8686bf;fill-rule:evenodd;stroke:none;stroke-width:1px;stroke-linecap:butt;stroke-linejoin:round;stroke-opacity:1"
       inkscape:box3dsidetype="3"
       d="M 5.3033009,-401.9101 L 44.69925,45.817252 L 44.69925,3561.9663 L 5.3033009,15.260131 L 5.3033009,-401.9101 z" />
  </g>
  <g
     sodipodi:type="inkscape:box3d"
     style="opacity:0.87878789;fill:#808000;fill-opacity:0;fill-rule:nonzero;stroke:#c9ae15;stroke-width:4.99606276;stroke-linecap:butt;stroke-linejoin:miter;stroke-miterlimit:4;stroke-dasharray:none;stroke-dashoffset:0;stroke-opacity:1"
     id="g2510"
     inkscape:perspectiveID="#perspective10"
     inkscape:corner0="69.1539 : -4.0528513 : 0 : 1"
     inkscape:corner7="7.3233441 : -33.31897 : 0.25 : 1">
    <path
       sodipodi:type="inkscape:box3dside"
       id="path2512"
       style="fill:#afafde;fill-rule:evenodd;stroke:none;stroke-width:1px;stroke-linecap:butt;stroke-linejoin:round;stroke-opacity:1"
       inkscape:box3dsidetype="13"
       d="M 5.3033009,15.260131 L 44.69925,3561.9663 L 65.09372,3444.6216 L 7.9267038,13.564766 L 5.3033009,15.260131 z" />
    <path
       sodipodi:type="inkscape:box3dside"
       id="path2514"
       style="fill:#353564;fill-rule:evenodd;stroke:none;stroke-width:1px;stroke-linecap:butt;stroke-linejoin:round;stroke-opacity:1"
       inkscape:box3dsidetype="6"
       d="M 5.3033009,-401.9101 L 5.3033009,15.260131 L 7.9267038,13.564766 L 7.9267038,-402.12412 L 5.3033009,-401.9101 z" />
    <path
       sodipodi:type="inkscape:box3dside"
       id="path2516"
       style="fill:#e9e9ff;fill-rule:evenodd;stroke:none;stroke-width:1px;stroke-linecap:butt;stroke-linejoin:round;stroke-opacity:1"
       inkscape:box3dsidetype="11"
       d="M 7.9267038,-402.12412 L 65.09372,31.003944 L 65.09372,3444.6216 L 7.9267038,13.564766 L 7.9267038,-402.12412 z" />
    <path
       sodipodi:type="inkscape:box3dside"
       id="path2518"
       style="fill:#4d4d9f;fill-rule:evenodd;stroke:none;stroke-width:1px;stroke-linecap:butt;stroke-linejoin:round;stroke-opacity:1"
       inkscape:box3dsidetype="5"
       d="M 5.3033009,-401.9101 L 44.69925,45.817252 L 65.09372,31.003944 L 7.9267038,-402.12412 L 5.3033009,-401.9101 z" />
    <path
       sodipodi:type="inkscape:box3dside"
       id="path2520"
       style="fill:#d7d7ff;fill-rule:evenodd;stroke:none;stroke-width:1px;stroke-linecap:butt;stroke-linejoin:round;stroke-opacity:1"
       inkscape:box3dsidetype="14"
       d="M 44.69925,45.817252 L 44.69925,3561.9663 L 65.09372,3444.6216 L 65.09372,31.003944 L 44.69925,45.817252 z" />
    <path
       sodipodi:type="inkscape:box3dside"
       id="path2522"
       style="fill:#8686bf;fill-rule:evenodd;stroke:none;stroke-width:1px;stroke-linecap:butt;stroke-linejoin:round;stroke-opacity:1"
       inkscape:box3dsidetype="3"
       d="M 5.3033009,-401.9101 L 44.69925,45.817252 L 44.69925,3561.9663 L 5.3033009,15.260131 L 5.3033009,-401.9101 z" />
  </g>
  <g
     id="g2543"
     transform="matrix(0.713636,0,0,0.7136277,22.822141,0.872519)">
    <path
       sodipodi:nodetypes="ccccccc"
       id="path590"
       d="M 53.389667,4.1252803 L 54.001275,26.783542 C 54.182167,38.036979 54.298094,44.922064 54.078155,59.897481 L 9.6587918,60.725615 C 8.739536,46.115208 8.4664843,40.548753 8.8920365,27.544213 C 9.4045021,18.234212 9.0802767,17.127731 9.9630528,4.9135685 C 9.4447067,3.93379 51.575004,0.55043863 53.389667,4.1252803 z"
       style="fill:#000080;fill-rule:evenodd;stroke-width:1pt" />
    <path
       sodipodi:nodetypes="ccccccc"
       id="path903"
       d="M 50.100343,8.8107664 L 50.616796,27.943684 C 50.769542,37.446225 50.867433,43.260077 50.681714,55.905501 L 13.173454,56.604794 C 12.397223,44.267582 12.166655,39.567198 12.525995,28.586003 C 12.958727,20.724525 12.684948,19.790201 13.430374,9.4764084 C 12.992677,8.6490704 48.568022,5.7921271 50.100343,8.8107664 z"
       style="fill:#00ffff;fill-opacity:1;fill-rule:evenodd;stroke-width:1pt" />
    <path
       sodipodi:nodetypes="ccssssss"
       id="path592"
       d="M 51.200427,56.381707 L 13.174448,57.005971 C 13.033192,55.81455 12.357297,52.548472 12.30576,48.967974 C 12.25421,45.38748 12.191343,38.882716 12.191002,38.794821 C 12.190319,38.619021 15.312411,39.5949 16.174739,42.018919 C 17.094133,44.765424 16.106442,50.974911 16.897172,50.972979 L 50.945861,50.889844 C 51.165807,50.889306 51.872712,56.370671 51.200427,56.381707 z"
       style="fill:#008080;fill-rule:evenodd;stroke-width:1pt" />
    <path
       sodipodi:nodetypes="ccssssss"
       id="path904"
       d="M 13.193814,7.9705037 L 50.238294,7.1207077 C 50.373889,8.7425587 50.480309,13.188578 50.529784,18.062605 C 50.579265,22.936634 50.639613,31.791384 50.63994,31.911036 C 50.640598,32.150343 47.643624,30.821909 46.81585,27.522163 C 45.933304,23.783421 46.881414,15.330623 46.122372,15.333253 L 13.438181,15.446423 C 13.227047,15.447151 12.54847,7.9853057 13.193814,7.9705037 z"
       style="fill:#ffffff;fill-opacity:1;fill-rule:evenodd;stroke-width:1pt" />
    <path
       sodipodi:nodetypes="css"
       id="path5409"
       d="M 16.624837,23.643481 C 22.07712,6.6808219 26.082764,7.7014169 30.760387,21.826054 C 35.912117,37.382316 42.145589,29.935225 45.780445,18.828721"
       style="fill:none;fill-rule:evenodd;stroke:#000000;stroke-width:3.39253211;stroke-linecap:round;stroke-linejoin:miter;stroke-miterlimit:4;stroke-dasharray:none;stroke-opacity:1" />
  </g>
  <g
     id="g13328"
     transform="matrix(0.6312779,0,0,0.6312779,-61.348141,-23.558133)">
    <path
       sodipodi:nodetypes="ccccccccccccc"
       id="path570"
       d="M 154.69054,113.07605 L 114.72151,139.58819 C 107.49931,142.59063 98.527596,133.15344 105.43583,124.45699 L 145.27021,96.97568 L 145.40483,84.083265 L 167.7445,72.733724 L 173.80035,83.368132 L 164.2454,91.635958 L 165.59123,94.539605 L 179.04886,88.608771 L 184.4318,101.32284 L 167.07159,114.62444 L 154.69054,113.07605 z"
       style="fill:#000000;fill-opacity:0.3;fill-rule:evenodd;stroke:none;stroke-width:1pt;stroke-linecap:butt;stroke-linejoin:miter;stroke-opacity:1" />
    <path
       sodipodi:nodetypes="ccccccccccccc"
       id="path569"
       d="M 151.18049,109.85849 L 111.21145,136.37063 C 103.98926,139.37307 95.017539,129.93588 101.92578,121.23944 L 141.76015,93.758126 L 141.89477,80.865711 L 164.23444,69.51617 L 170.2903,80.150578 L 160.73535,88.418404 L 162.08117,91.322051 L 175.5388,85.391217 L 180.92175,98.105283 L 163.56153,111.40688 L 151.18049,109.85849 z"
       style="fill:#000000;fill-opacity:1;fill-rule:evenodd;stroke:none;stroke-width:1pt;stroke-linecap:butt;stroke-linejoin:miter;stroke-opacity:1" />
    <path
       sodipodi:nodetypes="ccccccccccccc"
       id="path552"
       d="M 150.91134,105.44789 L 111.61522,132.09392 C 106.14247,134.69576 100.93888,128.14643 104.88644,122.94282 L 145.79745,95.758507 L 145.66292,82.97379 L 163.02323,74.091752 L 165.58018,79.474877 L 156.83267,88.625971 L 160.86997,95.489268 L 174.05845,89.971798 L 176.48077,96.565948 L 162.75409,106.79372 L 150.91134,105.44789 z"
       style="fill:#c9c9c9;fill-opacity:1;fill-rule:evenodd;stroke:none;stroke-width:1pt;stroke-linecap:butt;stroke-linejoin:miter;stroke-opacity:1" />
    <path
       sodipodi:nodetypes="ccccc"
       id="path566"
       d="M 150.64219,105.58251 C 150.50766,105.17884 147.54695,103.83301 148.62354,101.94898 L 135.7043,110.56187 C 135.97345,111.90761 137.18465,114.1954 137.18465,114.32993 C 137.18465,114.46455 150.23852,105.98628 150.64219,105.58251 z"
       style="fill:#9d9d9d;fill-opacity:1;fill-rule:evenodd;stroke:none;stroke-width:1pt;stroke-linecap:butt;stroke-linejoin:miter;stroke-opacity:1" />
    <path
       sodipodi:nodetypes="ccccc"
       id="path562"
       d="M 140.41442,112.44581 L 111.61522,132.09392 C 106.14247,134.69576 100.93888,128.14643 104.88644,122.94282 L 134.35847,103.29472 C 139.20321,104.59564 140.14527,108.72256 140.41442,112.44581 z"
       style="fill:#ffc83d;fill-opacity:1;fill-rule:evenodd;stroke:none;stroke-width:1pt;stroke-linecap:butt;stroke-linejoin:miter;stroke-opacity:1" />
    <path
       id="path568"
       d="M 135.83892,106.38995 L 108.11625,124.55771 C 108.11625,124.55771 106.09762,123.61564 106.36677,123.48112 C 106.63592,123.3465 134.08942,104.64045 134.08942,104.64045 L 135.83892,106.38995 z"
       style="fill:#ffffff;fill-opacity:1;fill-rule:evenodd;stroke:none;stroke-width:1pt;stroke-linecap:butt;stroke-linejoin:miter;stroke-opacity:1" />
    <path
       sodipodi:nodetypes="ccccc"
       id="path567"
       d="M 140.41442,112.44581 L 111.61522,132.09392 C 107.75738,133.08088 113.31982,131.24166 107.30881,127.3838 L 136.91541,107.46654 C 138.39577,107.69088 140.14527,108.72256 140.41442,112.44581 z"
       style="fill:#ff933d;fill-opacity:1;fill-rule:evenodd;stroke:none;stroke-width:1pt;stroke-linecap:butt;stroke-linejoin:miter;stroke-opacity:1" />
    <path
       id="path561"
       d="M 115.07173,122.80033 C 116.04236,124.50136 115.10068,126.8802 112.96982,128.11027 C 110.83891,129.34037 108.32175,128.95819 107.35113,127.25716 C 106.3805,125.55613 107.32219,123.17729 109.4531,121.94719 C 111.58396,120.71711 114.1011,121.0993 115.07173,122.80033 z"
       style="font-size:12px;fill:url(#linearGradient13341);fill-rule:evenodd;stroke-width:1pt" />
    <path
       id="path560"
       d="M 114.09214,123.36583 C 114.81646,124.6352 114.11375,126.41038 112.52362,127.3283 C 110.93346,128.24625 109.05506,127.96106 108.33074,126.69169 C 107.60642,125.42232 108.30915,123.64713 109.89931,122.72918 C 111.48944,121.81126 113.36783,122.09646 114.09214,123.36583 z"
       style="font-size:12px;fill:url(#linearGradient13343);fill-rule:evenodd;stroke-width:1pt" />
    <path
       sodipodi:nodetypes="ccccccccccc"
       id="path564"
       d="M 161.94655,76.783315 L 148.3544,83.915851 L 148.3544,94.009005 L 153.46828,102.35266 L 162.35032,103.42934 L 174.3276,96.027654 L 173.11639,92.932416 L 159.65876,98.988272 L 153.87205,88.895118 L 163.02323,78.801964 L 161.94655,76.783315 z"
       style="fill:#969696;fill-opacity:1;fill-rule:evenodd;stroke:none;stroke-width:1pt;stroke-linecap:butt;stroke-linejoin:miter;stroke-opacity:1" />
    <path
       sodipodi:nodetypes="ccccccccccc"
       id="path565"
       d="M 162.48485,77.859903 L 149.29646,85.530733 L 149.83475,93.605238 L 154.27572,100.8723 L 162.35032,103.42934 L 174.3276,96.027654 L 173.38554,93.874477 L 160.33167,99.930333 L 154.1412,89.029737 L 163.02323,78.801964 L 162.48485,77.859903 z"
       style="fill:#bbbbbb;fill-opacity:1;fill-rule:evenodd;stroke:none;stroke-width:1pt;stroke-linecap:butt;stroke-linejoin:miter;stroke-opacity:1" />
  </g>
</svg>
