<?xml version="1.0" encoding="UTF-8" standalone="no"?>
<!DOCTYPE svg PUBLIC "-//W3C//DTD SVG 20010904//EN"
"http://www.w3.org/TR/2001/REC-SVG-20010904/DTD/svg10.dtd">
<!-- Created with Sodipodi ("http://www.sodipodi.com/") -->
<svg
   id="svg604"
   sodipodi:version="0.32"
   width="24.000000pt"
   height="24.000000pt"
   sodipodi:docbase="/home/zeus/.icons/gartoon/scalable/stock-gar"
   sodipodi:docname="stock_copy.svg"
   xmlns="http://www.w3.org/2000/svg"
   xmlns:sodipodi="http://sodipodi.sourceforge.net/DTD/sodipodi-0.dtd"
   xmlns:xlink="http://www.w3.org/1999/xlink"
   xmlns:inkscape="http://www.inkscape.org/namespaces/inkscape"
   inkscape:version="0.40"
   xmlns:rdf="http://www.w3.org/1999/02/22-rdf-syntax-ns#"
   xmlns:cc="http://web.resource.org/cc/"
   xmlns:dc="http://purl.org/dc/elements/1.1/">
  <metadata
     id="metadata14">
    <rdf:RDF
       id="RDF15">
      <cc:Work
         rdf:about=""
         id="Work16">
        <dc:format
           id="format17">image/svg+xml</dc:format>
        <dc:type
           id="type19"
           rdf:resource="http://purl.org/dc/dcmitype/StillImage" />
      </cc:Work>
    </rdf:RDF>
  </metadata>
  <defs
     id="defs606">
    <linearGradient
       id="linearGradient612">
      <stop
         style="stop-color:#7fa8e3;stop-opacity:0.741176;"
         offset="0.000000"
         id="stop613" />
      <stop
         style="stop-color:#ffffff;stop-opacity:0;"
         offset="1.000000"
         id="stop614" />
    </linearGradient>
    <linearGradient
       xlink:href="#linearGradient612"
       id="linearGradient615"
       x1="50.6438866"
       y1="5.36792946"
       x2="35.7520943"
       y2="68.0443573"
       gradientUnits="userSpaceOnUse"
       spreadMethod="pad"
       gradientTransform="matrix(0.315309,0.000000,0.000000,0.315309,0.977039,0.451861)" />
    <linearGradient
       inkscape:collect="always"
       xlink:href="#linearGradient612"
       id="linearGradient1070"
       gradientUnits="userSpaceOnUse"
       spreadMethod="pad"
       x1="50.6438866"
       y1="5.36792946"
       x2="35.7520943"
       y2="68.0443573"
       gradientTransform="matrix(0.315309,0.000000,0.000000,0.315309,0.977039,0.451861)" />
  </defs>
  <sodipodi:namedview
     id="base"
     inkscape:zoom="5.0416667"
     inkscape:cx="36.000015"
     inkscape:cy="15.235537"
     inkscape:window-width="897"
     inkscape:window-height="536"
     inkscape:window-x="5"
     inkscape:window-y="48"
     inkscape:current-layer="svg604" />
  <path
     style="fill:#3d4e67;fill-opacity:1.0000000;fill-rule:evenodd;stroke:none;stroke-width:1.0000000pt;stroke-linecap:butt;stroke-linejoin:miter;stroke-opacity:1.0000000"
     d="M 5.6265798,24.780787 C 4.7441055,24.766586 3.2646487,24.174271 3.1354697,22.584789 C 2.6799261,20.978851 1.0963262,5.7999841 1.8604820,4.7427371 C 2.2553284,3.9103780 3.1151415,3.2993536 4.6448935,3.0875318 C 5.8965978,2.8768710 17.282240,1.2305167 18.121794,1.4860482 C 18.961374,1.7416002 19.622731,1.9576878 19.683129,3.2392756 C 19.621035,3.9362586 21.735781,18.152648 22.060212,18.990976 C 22.215013,19.972920 21.960899,21.345136 20.666288,21.797160 C 19.371701,22.249168 6.6485531,24.588938 5.6265798,24.780787 z "
     id="path609"
     sodipodi:nodetypes="ccccccccc" />
  <path
     style="fill:#ffffff;fill-opacity:1.0000000;fill-rule:evenodd;stroke:none;stroke-width:1.0000000pt;stroke-linecap:butt;stroke-linejoin:miter;stroke-opacity:1.0000000"
     d="M 6.6461000,23.097198 C 5.7905310,23.221344 4.6021029,23.480879 4.4601476,22.195184 C 3.8690381,19.151626 2.5137245,7.0892954 3.4794486,5.1290412 C 3.6951436,4.6680877 4.8662247,4.0424137 7.5264239,3.7812148 C 10.549459,3.4470261 16.752268,2.9388195 17.405005,2.9718304 C 18.057714,3.0048521 18.257396,2.9236225 18.399367,4.2093446 C 18.341713,5.5762755 20.310808,16.269335 20.427138,18.162564 C 20.517648,19.506547 20.673417,20.077575 19.874752,20.402488"
     id="path608"
     sodipodi:nodetypes="cccccccs" />
  <path
     style="fill:url(#linearGradient615);fill-opacity:1.0000000;fill-rule:evenodd;stroke:none;stroke-width:1.0000000pt;stroke-linecap:butt;stroke-linejoin:miter;stroke-opacity:1.0000000"
     d="M 3.6934961,6.9492099 C 3.6934961,6.9492099 3.7704435,5.1251660 5.9853510,4.7619300 C 8.2002520,4.3987003 16.972241,3.1606432 17.181249,3.7927110 C 17.390246,4.4247732 17.649007,8.5323918 17.713542,8.8646898 C 17.778079,9.1969718 10.352457,12.038566 8.3134132,14.750435 C 6.2743759,17.462301 4.8463350,19.656700 4.8463350,19.656700 C 4.8463350,19.656700 3.6787195,10.092479 3.6934961,6.9492099 z "
     id="path636" />
  <path
     style="fill:#3d4e67;fill-opacity:1.0000000;fill-rule:evenodd;stroke:none;stroke-width:1.0000000pt;stroke-linecap:butt;stroke-linejoin:miter;stroke-opacity:1.0000000"
     d="M 12.583719,28.533980 C 11.701245,28.519779 10.221789,27.927464 10.092610,26.337982 C 9.6370682,24.732044 8.0534661,9.5531768 8.8176239,8.4959298 C 9.2124696,7.6635708 10.072282,7.0525461 11.602033,6.8407246 C 12.853737,6.6300635 24.239379,4.9837121 25.078934,5.2392417 C 25.918513,5.4947933 26.579871,5.7108809 26.640268,6.9924703 C 26.578174,7.6894514 28.692921,21.905841 29.017352,22.744168 C 29.172152,23.726113 28.918039,25.098329 27.623427,25.550353 C 26.328841,26.002361 13.605692,28.342130 12.583719,28.533980 z "
     id="path737"
     sodipodi:nodetypes="ccccccccc" />
  <path
     style="fill:#ffffff;fill-opacity:1.0000000;fill-rule:evenodd;stroke:none;stroke-width:1.0000000pt;stroke-linecap:butt;stroke-linejoin:miter;stroke-opacity:1.0000000"
     d="M 13.603239,26.850391 C 12.747670,26.974537 11.559242,27.234071 11.417287,25.948377 C 10.826180,22.904818 9.4708654,10.842488 10.436591,8.8822338 C 10.652284,8.4212808 11.823364,7.7956065 14.483563,7.5344077 C 17.506598,7.2002211 23.709408,6.6920123 24.362145,6.7250251 C 25.014853,6.7580474 25.214535,6.6768175 25.356506,7.9625374 C 25.298852,9.3294678 27.267948,20.022528 27.384278,21.915757 C 27.474787,23.259740 27.630556,23.830767 26.831891,24.155681"
     id="path738"
     sodipodi:nodetypes="cccccccs" />
  <path
     style="fill:url(#linearGradient1070);fill-opacity:1.0000000;fill-rule:evenodd;stroke:none;stroke-width:1.0000000pt;stroke-linecap:butt;stroke-linejoin:miter;stroke-opacity:1.0000000"
     d="M 10.650638,10.702403 C 10.650638,10.702403 10.727583,8.8783588 12.942490,8.5151228 C 15.157391,8.1518931 23.929380,6.9138385 24.138389,7.5459038 C 24.347385,8.1779660 24.606147,12.285585 24.670681,12.617883 C 24.735218,12.950165 17.309596,15.791759 15.270552,18.503628 C 13.231515,21.215493 11.803474,23.409893 11.803474,23.409893 C 11.803474,23.409893 10.635860,13.845671 10.650638,10.702403 z "
     id="path739" />
</svg>
