<?xml version="1.0" encoding="UTF-8" standalone="no"?>
<!DOCTYPE svg PUBLIC "-//W3C//DTD SVG 20010904//EN"
"http://www.w3.org/TR/2001/REC-SVG-20010904/DTD/svg10.dtd">
<!-- Created with Sodipodi ("http://www.sodipodi.com/") -->
<svg
   version="1"
   x="0.00000000"
   y="0.00000000"
   width="24.000000pt"
   height="24.000000pt"
   id="svg548"
   sodipodi:version="0.32"
   sodipodi:docname="stock_redo.svg"
   sodipodi:docbase="/home/zeus/.icons/gartoon/scalable/stock-gar"
   inkscape:version="0.40"
   xmlns="http://www.w3.org/2000/svg"
   xmlns:inkscape="http://www.inkscape.org/namespaces/inkscape"
   xmlns:sodipodi="http://sodipodi.sourceforge.net/DTD/sodipodi-0.dtd"
   xmlns:xlink="http://www.w3.org/1999/xlink"
   xmlns:rdf="http://www.w3.org/1999/02/22-rdf-syntax-ns#"
   xmlns:cc="http://web.resource.org/cc/"
   xmlns:dc="http://purl.org/dc/elements/1.1/">
  <metadata
     id="metadata14">
    <rdf:RDF
       id="RDF15">
      <cc:Work
         rdf:about=""
         id="Work16">
        <dc:format
           id="format17">image/svg+xml</dc:format>
        <dc:type
           id="type19"
           rdf:resource="http://purl.org/dc/dcmitype/StillImage" />
      </cc:Work>
    </rdf:RDF>
  </metadata>
  <sodipodi:namedview
     id="base"
     inkscape:zoom="3.4139999"
     inkscape:cx="15.999998"
     inkscape:cy="20.142398"
     inkscape:window-width="1014"
     inkscape:window-height="696"
     inkscape:window-x="0"
     inkscape:window-y="25"
     inkscape:current-layer="svg548" />
  <defs
     id="defs550">
    <linearGradient
       x1="0.00000000"
       y1="0.00000000"
       x2="1.00000000"
       y2="0.00000000"
       id="linearGradient556"
       gradientUnits="objectBoundingBox"
       spreadMethod="pad">
      <stop
         style="stop-color:#ff0000;stop-opacity:1.0000;"
         offset="0"
         id="stop557" />
      <stop
         style="stop-color:#ffff8d;stop-opacity:0;"
         offset="1"
         id="stop558" />
    </linearGradient>
    <linearGradient
       id="linearGradient559"
       xlink:href="#linearGradient556"
       x1="0.984508"
       y1="0.968756"
       x2="-0.573643"
       y2="-0.171875" />
  </defs>
  <path
     d="M 29.634050,12.215167 C 29.403678,9.5510591 19.718456,0.66572845 17.523853,1.4700302 C 13.495659,2.1151802 14.229650,6.7127899 12.637353,7.2786352 C 11.034183,7.5594371 -2.8779381,9.0808467 3.4150055,24.008469 C 4.5599071,26.682471 5.2871152,27.184072 6.4838075,28.060726 C 7.6483019,28.848933 9.5180145,28.895064 11.034111,27.190083 C 12.419022,25.132471 11.821038,23.103976 11.178725,21.399802 C 9.1574747,16.298329 12.887111,16.237111 14.950046,15.160144 C 15.432203,16.945371 16.320644,21.158346 17.518396,21.099739 C 18.716158,21.041142 29.932268,17.536560 29.634050,12.215167 z "
     style="font-size:12.000000;fill:#0d3c07;fill-rule:evenodd"
     id="path582"
     sodipodi:nodetypes="cccsscsccc" />
  <path
     d="M 27.920552,12.045037 C 27.845128,10.049064 19.637848,2.9595809 17.836731,3.6557886 C 16.035524,4.3520331 16.950495,6.8891171 16.178211,8.2983198 C -1.3644770,8.6612267 3.2097086,28.261895 8.8927590,25.988715 C 12.005179,24.781629 6.7010821,19.706135 9.1683009,16.266553 C 11.260883,13.265714 16.786137,12.701609 16.899692,13.439741 C 17.126808,14.916029 17.406127,19.330054 18.373398,19.236410 C 19.340682,19.142767 28.342319,14.142100 27.920552,12.045037 z "
     style="font-size:12.000000;fill:#2aaf18;fill-rule:evenodd"
     id="path581"
     sodipodi:nodetypes="ccccsccc" />
  <path
     d="M 4.2030225,20.683533 C 4.8898065,16.297530 5.9007809,13.725889 8.2904327,11.918002 C 10.919906,9.8268400 15.383638,9.5060377 15.518516,9.1256960 C 15.653375,8.7453639 12.281213,9.7572684 9.6765436,10.536319 C 4.7932401,11.976527 3.7751776,17.657035 4.2030225,20.683533 z "
     style="font-size:12.000000;fill:#ffffff;fill-rule:evenodd"
     id="path588"
     sodipodi:nodetypes="cscsc" />
  <path
     d="M 23.939814,10.171925 C 23.384494,9.5240558 19.475039,6.2578460 18.408664,6.0305439 C 17.342351,5.8033087 18.052782,7.7719346 18.052782,7.7719346 C 18.052782,7.7719346 23.500909,9.4370111 23.939814,10.171925 z "
     style="font-size:12.000000;fill:#ffffff;fill-rule:evenodd"
     id="path589"
     sodipodi:nodetypes="cccc" />
  <path
     style="font-size:12.000000;fill:none;fill-rule:evenodd;stroke-width:1.0000000pt"
     d="M 24.317784,17.804967 C 24.317784,17.804967 28.695973,15.977129 28.688576,16.034526 C 28.681178,16.091914 27.873867,15.112660 27.873867,15.112660 L 26.739015,15.316455 L 24.223165,16.275773 L 24.317784,17.804967 z "
     id="path576" />
  <path
     style="fill:#1f8b10;fill-opacity:0.98989999;fill-rule:evenodd;stroke:none;stroke-width:1.0000000pt;stroke-linecap:butt;stroke-linejoin:miter;stroke-opacity:1.0000000"
     d="M 27.867301,12.031744 C 28.330068,14.808322 18.241829,19.435954 18.241829,19.435954 C 17.316300,18.695536 16.760984,13.697695 15.835460,13.049822 C 14.169513,13.790244 8.9865653,15.271084 8.7089099,17.214691 C 8.4312449,19.158298 9.8195411,23.045508 10.004648,23.971032 C 10.374857,25.359328 9.1716721,26.655061 7.9684874,26.099746 C 6.7653028,25.544430 6.5801960,24.433794 6.5801960,24.433794 C 6.5801960,24.433794 7.8759340,24.433799 8.0610408,23.415716 C 8.2461429,22.397639 5.5621181,17.399798 6.9504096,15.456191 C 8.3386963,13.512589 13.891852,10.828564 17.316300,11.106219 L 18.704591,16.844477 C 18.704591,16.844477 20.092878,16.751934 27.867301,12.031744 z "
     id="path615"
     sodipodi:nodetypes="cccccccccccc" />
</svg>
