<?xml version="1.0" encoding="UTF-8" standalone="no"?>
<!DOCTYPE svg PUBLIC "-//W3C//DTD SVG 20010904//EN"
"http://www.w3.org/TR/2001/REC-SVG-20010904/DTD/svg10.dtd">
<!-- Created with Sodipodi ("http://www.sodipodi.com/") -->
<svg
   id="svg666"
   sodipodi:version="0.32"
   width="24.000000pt"
   height="24.000000pt"
   sodipodi:docbase="/home/zeus/.icons/gartoon/scalable/stock-gar"
   sodipodi:docname="stock_revert-to-saved.svg"
   inkscape:version="0.40"
   xmlns="http://www.w3.org/2000/svg"
   xmlns:inkscape="http://www.inkscape.org/namespaces/inkscape"
   xmlns:sodipodi="http://sodipodi.sourceforge.net/DTD/sodipodi-0.dtd"
   xmlns:xlink="http://www.w3.org/1999/xlink"
   xmlns:rdf="http://www.w3.org/1999/02/22-rdf-syntax-ns#"
   xmlns:cc="http://web.resource.org/cc/"
   xmlns:dc="http://purl.org/dc/elements/1.1/">
  <metadata
     id="metadata43">
    <rdf:RDF
       id="RDF44">
      <cc:Work
         rdf:about=""
         id="Work45">
        <dc:format
           id="format46">image/svg+xml</dc:format>
        <dc:type
           id="type48"
           rdf:resource="http://purl.org/dc/dcmitype/StillImage" />
      </cc:Work>
    </rdf:RDF>
  </metadata>
  <defs
     id="defs668">
    <linearGradient
       id="linearGradient689">
      <stop
         style="stop-color:#ffb700;stop-opacity:1;"
         offset="0.000000"
         id="stop690" />
      <stop
         style="stop-color:#fdffff;stop-opacity:0;"
         offset="1.000000"
         id="stop691" />
    </linearGradient>
    <linearGradient
       id="linearGradient684">
      <stop
         style="stop-color:#ffffff;stop-opacity:0.647059;"
         offset="0.000000"
         id="stop685" />
      <stop
         style="stop-color:#fdffff;stop-opacity:0;"
         offset="1.000000"
         id="stop686" />
    </linearGradient>
    <linearGradient
       id="linearGradient677">
      <stop
         style="stop-color:#000000;stop-opacity:1;"
         offset="0.000000"
         id="stop678" />
      <stop
         style="stop-color:#6a6762;stop-opacity:1;"
         offset="1.000000"
         id="stop679" />
    </linearGradient>
    <linearGradient
       xlink:href="#linearGradient677"
       id="linearGradient680"
       x1="68.3116760"
       y1="71.2960510"
       x2="52.5783653"
       y2="39.5797806"
       gradientUnits="userSpaceOnUse"
       spreadMethod="pad"
       gradientTransform="matrix(0.478438,0.000000,0.000000,0.467563,0.599271,0.721782)" />
    <linearGradient
       xlink:href="#linearGradient684"
       id="linearGradient683"
       x1="49.0257645"
       y1="44.3401871"
       x2="56.4553261"
       y2="53.1827507"
       gradientUnits="userSpaceOnUse"
       spreadMethod="pad"
       gradientTransform="matrix(0.481269,0.000000,0.000000,0.464813,0.599271,0.721782)" />
    <linearGradient
       xlink:href="#linearGradient689"
       id="linearGradient688"
       x1="26.2959213"
       y1="98.9529343"
       x2="31.7159863"
       y2="102.827583"
       gradientUnits="userSpaceOnUse"
       spreadMethod="pad"
       gradientTransform="matrix(0.627619,0.000000,0.000000,0.356427,0.599271,0.721782)" />
    <linearGradient
       xlink:href="#linearGradient689"
       id="linearGradient693"
       x1="33.5794411"
       y1="53.8219566"
       x2="-14.0691185"
       y2="26.5526485"
       gradientUnits="userSpaceOnUse"
       spreadMethod="pad"
       gradientTransform="matrix(0.369288,0.000000,0.000000,0.605761,0.599271,0.721782)" />
    <linearGradient
       xlink:href="#linearGradient689"
       id="linearGradient698" />
  </defs>
  <sodipodi:namedview
     id="base"
     inkscape:zoom="4.2916667"
     inkscape:cx="39.961165"
     inkscape:cy="17.359223"
     inkscape:window-width="1014"
     inkscape:window-height="696"
     inkscape:window-x="0"
     inkscape:window-y="25"
     inkscape:current-layer="svg666" />
  <path
     style="fill:#000000;fill-opacity:0.29824600;fill-rule:evenodd;stroke:none;stroke-width:1.0000000pt;stroke-linecap:butt;stroke-linejoin:miter;stroke-opacity:1.0000000"
     d="M 1.1867271,16.548586 C 1.1867271,16.548586 5.5574307,22.218911 9.1896316,26.888719 C 9.8692888,27.388028 14.185571,29.155456 15.191802,28.729351 C 16.089140,28.256163 28.236930,20.159813 28.454646,19.199381 C 28.797418,18.116610 28.375954,17.414761 28.071431,16.873405 C 27.821353,16.332020 19.693403,5.4505253 19.380798,5.1798416 C 19.068193,4.9091549 18.192870,4.5301972 17.129997,4.8550194 C 14.425337,6.2065136 5.9141717,10.817091 1.5861438,14.688831 C 1.0234401,15.230216 1.1242061,16.007201 1.1867271,16.548586 z "
     id="path699"
     sodipodi:nodetypes="ccccccccc" />
  <path
     style="font-size:12.000000;fill:none;fill-rule:evenodd;stroke:#000000;stroke-width:0.31075277pt"
     d="M 3.5167114,12.540822 C 3.5167114,12.559405 3.5167114,12.577988 3.5167114,12.596602"
     id="path671" />
  <path
     style="fill:#261d14;fill-opacity:1.0000000;fill-rule:evenodd;stroke:none;stroke-width:1.0000000pt;stroke-linecap:butt;stroke-linejoin:miter;stroke-opacity:1.0000000"
     d="M 1.2299238,14.381412 C 1.2299238,14.381412 5.1289506,20.223350 8.3691719,25.034490 C 8.9754819,25.548910 12.825960,27.369830 13.723601,26.930829 C 14.524100,26.443320 25.360927,18.101933 25.555147,17.112433 C 25.860928,15.996892 25.484948,15.273801 25.213288,14.716062 C 24.990199,14.158291 17.739399,2.9474678 17.460530,2.6685919 C 17.181660,2.3897128 16.400800,1.9992859 15.452630,2.3339389 C 13.039851,3.7263360 5.4471929,8.4764531 1.5862363,12.465371 C 1.0842583,13.023142 1.1741499,13.823641 1.2299238,14.381412 z "
     id="path676"
     sodipodi:nodetypes="ccccccccc" />
  <path
     style="fill:#f1e36c;fill-opacity:1.0000000;fill-rule:evenodd;stroke:none;stroke-width:1.0000000pt;stroke-linecap:butt;stroke-linejoin:miter;stroke-opacity:1.0000000"
     d="M 3.4609375,12.596602 C 3.4609375,12.596602 9.2615613,21.687960 9.4846506,22.078390 C 9.7077711,22.468820 10.209762,23.026591 11.213711,23.305460 C 12.719651,23.918980 14.169780,24.476720 14.281340,24.476720 C 14.392900,24.476720 15.117981,23.807420 15.117981,23.807420 L 11.827231,19.680061 L 19.356900,13.098562 L 22.536089,17.727911 L 24.265118,16.333531 C 24.265118,16.333531 16.456580,3.6167706 16.345020,3.6167706 C 16.233491,3.6167706 14.392900,4.7322837 14.392900,4.7322837 L 18.297170,10.644452 C 18.297170,10.644452 10.655941,16.277782 9.9866410,16.835521 C 9.3731216,16.835521 4.9668619,11.313752 4.9668619,11.313752 L 3.4609375,12.596602 z "
     id="path672"
     sodipodi:nodetypes="ccccccccccccccc" />
  <path
     style="fill:#ffffff;fill-opacity:1.0000000;fill-rule:evenodd;stroke:none;stroke-width:1.0000000pt;stroke-linecap:butt;stroke-linejoin:miter;stroke-opacity:1.0000000"
     d="M 5.4130719,11.034882 L 9.9866410,16.222002 L 17.627870,10.477143 L 13.946691,4.8995931 L 5.4130719,11.034882 z "
     id="path673"
     sodipodi:nodetypes="ccccc" />
  <path
     style="fill:url(#linearGradient680);fill-opacity:1.0000000;fill-rule:evenodd;stroke:none;stroke-width:1.0000000pt;stroke-linecap:butt;stroke-linejoin:miter;stroke-opacity:1.0000000"
     d="M 12.440751,19.735841 L 15.396850,23.416990 L 16.121930,22.859250 L 13.556260,19.680061 C 13.556260,19.680061 14.392900,18.731860 14.950640,18.676111 C 15.843060,19.512720 17.627870,21.743740 17.627870,21.743740 L 22.257219,18.229901 L 19.189559,13.823641 L 12.440751,19.735841 z "
     id="path674"
     sodipodi:nodetypes="ccccccccc" />
  <path
     style="fill:#f1e36c;fill-opacity:1.0000000;fill-rule:evenodd;stroke:none;stroke-width:1.0000000pt;stroke-linecap:butt;stroke-linejoin:miter;stroke-opacity:1.0000000"
     d="M 3.2450543,12.889922 C 3.0219554,12.834142 9.7635517,23.249649 9.9308921,23.249649 C 10.098201,23.249649 13.667821,24.755620 13.667821,24.755620 L 13.444731,25.480669 L 9.7077711,24.420970 L 2.4642004,13.733772 L 3.2450543,12.889922 z "
     id="path675"
     sodipodi:nodetypes="ccccccc" />
  <path
     style="fill:#f1e36c;fill-opacity:1.0000000;fill-rule:evenodd;stroke:none;stroke-width:1.0000000pt;stroke-linecap:butt;stroke-linejoin:miter;stroke-opacity:1.0000000"
     d="M 13.946691,19.624281 L 16.233491,22.580381 L 17.237440,21.743740 L 14.839111,18.843421 L 13.946691,19.624281 z "
     id="path681" />
  <path
     style="fill:url(#linearGradient683);fill-opacity:1.0000000;fill-rule:evenodd;stroke:none;stroke-width:1.0000000pt;stroke-linecap:butt;stroke-linejoin:miter;stroke-opacity:1.0000000"
     d="M 19.137570,14.122213 L 14.816177,17.909515 C 15.188428,19.010078 16.434672,19.867880 16.952604,20.482922 C 17.745677,14.526813 19.412742,15.028555 21.079807,17.181172 L 19.137570,14.122213 z "
     id="path682"
     sodipodi:nodetypes="ccccc" />
  <path
     style="fill:url(#linearGradient688);fill-opacity:1.0000000;fill-rule:evenodd;stroke:none;stroke-width:1.0000000pt;stroke-linecap:butt;stroke-linejoin:miter;stroke-opacity:1.0000000"
     d="M 13.602283,24.755775 L 13.408062,25.484119 L 9.6693310,24.513015 L 9.8149810,23.250582 L 13.602283,24.755775 z "
     id="path687" />
  <path
     style="fill:url(#linearGradient693);fill-opacity:1.0000000;fill-rule:evenodd;stroke:none;stroke-width:1.0000000pt;stroke-linecap:butt;stroke-linejoin:miter;stroke-opacity:1.0000000"
     d="M 9.6693310,24.464445 L 9.9120916,23.347692 L 4.6681350,15.384647 L 4.3768041,16.452860 L 9.6693310,24.464445 z "
     id="path692" />
  <path
     style="fill:#bae6ff;fill-opacity:1.0000000;fill-rule:evenodd;stroke:none;stroke-width:1.0000000pt;stroke-linecap:butt;stroke-linejoin:miter;stroke-opacity:1.0000000"
     d="M 5.3964778,11.014683 L 7.3386840,13.199649 L 15.641630,7.3730313 L 13.942185,4.8967342 L 5.3964778,11.014683 z "
     id="path697"
     sodipodi:nodetypes="ccccc" />
  <g
     id="g652"
     transform="matrix(-0.198656,0.260336,0.260723,0.198361,15.51024,-4.584548)">
    <sodipodi:namedview
       id="namedview653"
       inkscape:zoom="9.65625000"
       inkscape:cx="16.0000000"
       inkscape:cy="20.1423948"
       inkscape:window-width="1014"
       inkscape:window-height="696"
       inkscape:window-x="0"
       inkscape:window-y="0" />
    <defs
       id="defs550">
      <linearGradient
         x1="0.0000000"
         y1="0.0000000"
         x2="1.0000000"
         y2="0.0000000"
         id="linearGradient556"
         gradientUnits="objectBoundingBox"
         spreadMethod="pad">
        <stop
           style="stop-color:#ff0000;stop-opacity:1.0000;"
           offset="0"
           id="stop557" />
        <stop
           style="stop-color:#ffff8d;stop-opacity:0;"
           offset="1"
           id="stop558" />
      </linearGradient>
      <linearGradient
         id="linearGradient559"
         xlink:href="#linearGradient556"
         x1="0.98450798"
         y1="0.96875602"
         x2="-0.57364303"
         y2="-0.17187500" />
    </defs>
    <path
       d="M 60.017250,23.996480 C 59.535490,18.425230 39.281510,-0.15599700 34.692100,1.5259790 C 26.268240,2.8751330 27.803180,12.489770 24.473330,13.673080 C 21.120740,14.260300 -7.9726380,17.441910 5.1873240,48.658930 C 7.5815710,54.250870 9.1023270,55.299830 11.604880,57.133110 C 14.040100,58.781430 17.950090,58.877900 21.120590,55.312400 C 24.016750,51.009470 22.766230,46.767430 21.423010,43.203620 C 17.196120,32.535290 24.995630,32.407270 29.309690,30.155090 C 30.317990,33.888400 32.175920,42.698680 34.680690,42.576120 C 37.185480,42.453580 60.640890,35.124710 60.017250,23.996480 z "
       style="font-size:12.000000;fill:#0d3c07;fill-rule:evenodd"
       id="path582"
       sodipodi:nodetypes="cccsscsccc" />
    <path
       d="M 56.433940,23.640700 C 56.276210,19.466670 39.112940,4.6409650 35.346400,6.0968920 C 31.579670,7.5528960 33.493080,12.858510 31.878060,15.805470 C -4.8076500,16.564390 4.7580020,57.553800 16.642540,52.800070 C 23.151310,50.275780 12.059250,39.661780 17.218760,32.468840 C 21.594820,26.193410 33.149370,25.013740 33.386840,26.557340 C 33.861790,29.644590 34.445910,38.875310 36.468690,38.679480 C 38.491500,38.483650 57.315950,28.026130 56.433940,23.640700 z "
       style="font-size:12.000000;fill:#2aaf18;fill-rule:evenodd"
       id="path581"
       sodipodi:nodetypes="ccccsccc" />
    <path
       d="M 6.8352450,41.705740 C 8.2714650,32.533620 10.385640,27.155740 15.382940,23.375040 C 20.881760,19.001950 30.216430,18.331080 30.498490,17.535700 C 30.780510,16.740340 23.728560,18.856460 18.281610,20.485630 C 8.0695230,23.497430 5.9405250,35.376650 6.8352450,41.705740 z "
       style="font-size:12.000000;fill:#ffffff;fill-rule:evenodd"
       id="path588"
       sodipodi:nodetypes="cscsc" />
    <path
       d="M 48.109320,19.723600 C 46.948020,18.368760 38.772470,11.538380 36.542440,11.063040 C 34.312540,10.587840 35.798210,14.704680 35.798210,14.704680 C 35.798210,14.704680 47.191470,18.186730 48.109320,19.723600 z "
       style="font-size:12.000000;fill:#ffffff;fill-rule:evenodd"
       id="path589"
       sodipodi:nodetypes="cccc" />
    <path
       style="font-size:12.000000;fill:none;fill-rule:evenodd;stroke-width:1.0000000pt"
       d="M 48.899740,35.686010 C 48.899740,35.686010 58.055520,31.863590 58.040050,31.983620 C 58.024580,32.103630 56.336310,30.055790 56.336310,30.055790 L 53.963080,30.481970 L 48.701870,32.488120 L 48.899740,35.686010 z "
       id="path576" />
    <path
       style="fill:#1f8b10;fill-opacity:0.98989999;fill-rule:evenodd;stroke:none;stroke-width:1.0000000pt;stroke-linecap:butt;stroke-linejoin:miter;stroke-opacity:1.0000000"
       d="M 56.322580,23.612900 C 57.290330,29.419350 36.193550,39.096770 36.193550,39.096770 C 34.258060,37.548390 33.096770,27.096780 31.161290,25.741930 C 27.677420,27.290320 16.838710,30.387090 16.258070,34.451610 C 15.677410,38.516130 18.580650,46.645160 18.967750,48.580640 C 19.741940,51.483880 17.225810,54.193550 14.709680,53.032260 C 12.193550,51.870970 11.806450,49.548380 11.806450,49.548380 C 11.806450,49.548380 14.516130,49.548390 14.903230,47.419350 C 15.290320,45.290320 9.6774200,34.838710 12.580650,30.774190 C 15.483870,26.709680 27.096770,21.096780 34.258060,21.677420 L 37.161290,33.677410 C 37.161290,33.677410 40.064510,33.483880 56.322580,23.612900 z "
       id="path615"
       sodipodi:nodetypes="cccccccccccc" />
  </g>
</svg>
