<?xml version="1.0" encoding="UTF-8" standalone="no"?>
<!-- Created with Inkscape (http://www.inkscape.org/) -->

<svg
   xmlns:dc="http://purl.org/dc/elements/1.1/"
   xmlns:cc="http://creativecommons.org/ns#"
   xmlns:rdf="http://www.w3.org/1999/02/22-rdf-syntax-ns#"
   xmlns:svg="http://www.w3.org/2000/svg"
   xmlns="http://www.w3.org/2000/svg"
   xmlns:xlink="http://www.w3.org/1999/xlink"
   xmlns:sodipodi="http://sodipodi.sourceforge.net/DTD/sodipodi-0.dtd"
   xmlns:inkscape="http://www.inkscape.org/namespaces/inkscape"
   width="32"
   height="32"
   id="svg2307"
   sodipodi:version="0.32"
   inkscape:version="0.47pre4 r22446"
   sodipodi:docname="note.svg"
   inkscape:output_extension="org.inkscape.output.svg.inkscape"
   version="1.0"
   inkscape:export-filename="/home/andres/src/qutecsound/trunk/qutecsound/images/note.png"
   inkscape:export-xdpi="90"
   inkscape:export-ydpi="90">
  <defs
     id="defs2309">
    <inkscape:perspective
       sodipodi:type="inkscape:persp3d"
       inkscape:vp_x="0 : 24 : 1"
       inkscape:vp_y="0 : 1000 : 0"
       inkscape:vp_z="48 : 24 : 1"
       inkscape:persp3d-origin="24 : 16 : 1"
       id="perspective38" />
    <linearGradient
       id="linearGradient3290">
      <stop
         style="stop-color:#3465a4;stop-opacity:1"
         offset="0"
         id="stop3292" />
      <stop
         style="stop-color:#729fcf;stop-opacity:1"
         offset="1"
         id="stop3294" />
    </linearGradient>
    <linearGradient
       inkscape:collect="always"
       id="linearGradient3261">
      <stop
         style="stop-color:#ffffff;stop-opacity:1;"
         offset="0"
         id="stop3263" />
      <stop
         style="stop-color:#ffffff;stop-opacity:0;"
         offset="1"
         id="stop3265" />
    </linearGradient>
    <linearGradient
       id="linearGradient3241">
      <stop
         id="stop3243"
         offset="0"
         style="stop-color:#729fcf;stop-opacity:1" />
      <stop
         id="stop3245"
         offset="1"
         style="stop-color:#729fcf;stop-opacity:0" />
    </linearGradient>
    <linearGradient
       inkscape:collect="always"
       id="linearGradient2397">
      <stop
         style="stop-color:#ffffff;stop-opacity:1;"
         offset="0"
         id="stop2399" />
      <stop
         style="stop-color:#ffffff;stop-opacity:0;"
         offset="1"
         id="stop2401" />
    </linearGradient>
    <linearGradient
       inkscape:collect="always"
       xlink:href="#linearGradient2397"
       id="linearGradient3249"
       gradientUnits="userSpaceOnUse"
       x1="32.195919"
       y1="39.532585"
       x2="37.485153"
       y2="43.330803" />
    <linearGradient
       inkscape:collect="always"
       xlink:href="#linearGradient3261"
       id="linearGradient3267"
       x1="27.5"
       y1="24.120338"
       x2="27.5"
       y2="37.481789"
       gradientUnits="userSpaceOnUse" />
  </defs>
  <sodipodi:namedview
     id="base"
     pagecolor="#ffffff"
     bordercolor="#666666"
     borderopacity="1.0"
     inkscape:pageopacity="0.0"
     inkscape:pageshadow="2"
     inkscape:zoom="5.6568542"
     inkscape:cx="25.370971"
     inkscape:cy="18.812907"
     inkscape:current-layer="layer1"
     showgrid="false"
     inkscape:grid-bbox="true"
     inkscape:document-units="px"
     showborder="true"
     inkscape:grid-points="true"
     inkscape:showpageshadow="false"
     inkscape:window-width="872"
     inkscape:window-height="619"
     inkscape:window-x="368"
     inkscape:window-y="34"
     width="48px"
     height="48px"
     inkscape:window-maximized="0">
    <inkscape:grid
       id="GridFromPre046Settings"
       type="xygrid"
       originx="0px"
       originy="0px"
       spacingx="0.5px"
       spacingy="0.5px"
       color="#0000ff"
       empcolor="#0000ff"
       opacity="0.2"
       empopacity="0.4"
       empspacing="2"
       visible="true"
       enabled="true"
       snapvisiblegridlinesonly="true" />
  </sodipodi:namedview>
  <metadata
     id="metadata2312">
    <rdf:RDF>
      <cc:Work
         rdf:about="">
        <dc:format>image/svg+xml</dc:format>
        <dc:type
           rdf:resource="http://purl.org/dc/dcmitype/StillImage" />
        <dc:title></dc:title>
      </cc:Work>
    </rdf:RDF>
  </metadata>
  <g
     id="layer1"
     inkscape:label="Layer 1"
     inkscape:groupmode="layer"
     transform="translate(-1.9999998,-15.71875)">
    <path
       transform="matrix(1.851616,0,0,1.446575,-2.5780369,14.479886)"
       d="m 16,19.5 a 6,2.5 0 1 1 -12,0 6,2.5 0 1 1 12,0 z"
       sodipodi:ry="2.5"
       sodipodi:rx="6"
       sodipodi:cy="19.5"
       sodipodi:cx="10"
       id="path3410"
       style="opacity:0.29501917;fill:#00f528;fill-opacity:1;stroke:none"
       sodipodi:type="arc" />
    <path
       style="fill:#008000;fill-opacity:1;stroke:#073d0d;stroke-width:0.61720532;stroke-linecap:round;stroke-linejoin:round;stroke-miterlimit:4;stroke-opacity:1;stroke-dasharray:none;stroke-dashoffset:0"
       d="m 18.715547,18.395282 0,21.119995 c -1.049671,-0.4681 -2.457513,-0.752219 -4.011835,-0.752219 -3.236624,0 -5.8634503,1.244286 -5.8634503,2.777424 0,1.533138 2.6268263,2.777423 5.8634503,2.777424 3.236625,0 5.863451,-1.244287 5.863451,-2.777424 l 0,-16.973147 c 0,-2.319658 1.481361,-1.018286 2.777424,0.925808 1.234411,1.851616 2.777424,3.394629 6.480656,0.925808 -5.554848,1.234411 -4.320437,-8.023669 -9.25808,-8.023669 l -1.851616,0 z"
       id="path3404"
       sodipodi:nodetypes="ccsssccsccc" />
    <path
       sodipodi:type="arc"
       style="opacity:0.91570877;color:#000000;fill:#008000;fill-opacity:1;fill-rule:nonzero;stroke:none;stroke-width:0.59303617;marker:none;visibility:visible;display:inline;overflow:visible"
       id="path2385"
       sodipodi:cx="33.786095"
       sodipodi:cy="41.87933"
       sodipodi:rx="5.6637621"
       sodipodi:ry="1.8473293"
       d="m 39.449857,41.87933 a 5.6637621,1.8473293 0 1 1 -11.327524,0 5.6637621,1.8473293 0 1 1 11.327524,0 z"
       transform="matrix(0.98077002,0,0,1.3364275,-18.432677,-14.428206)" />
    <path
       sodipodi:type="arc"
       style="opacity:0.25;color:#000000;fill:#008000;fill-opacity:1;fill-rule:nonzero;stroke:url(#linearGradient3249);stroke-width:0.59303617;stroke-linecap:square;stroke-linejoin:miter;stroke-miterlimit:4;stroke-opacity:1;stroke-dasharray:none;stroke-dashoffset:0;marker:none;visibility:visible;display:inline;overflow:visible"
       id="path3247"
       sodipodi:cx="33.786095"
       sodipodi:cy="41.87933"
       sodipodi:rx="5.6637621"
       sodipodi:ry="1.8473293"
       d="m 39.449857,41.87933 a 5.6637621,1.8473293 0 1 1 -11.327524,0 5.6637621,1.8473293 0 1 1 11.327524,0 z"
       transform="matrix(0.92628277,0,0,1.1693738,-16.591765,-7.4321082)" />
    <g
       id="g3286"
       style="opacity:0.25;fill:#008000"
       transform="matrix(0.61720534,0,0,0.61720534,2.3596057,16.852268)">
      <path
         id="path3251"
         d="m 27.5,38.5 0,-35"
         style="fill:#008000;fill-opacity:1;fill-rule:evenodd;stroke:url(#linearGradient3267);stroke-width:1px;stroke-linecap:square;stroke-linejoin:miter;stroke-opacity:1" />
      <path
         sodipodi:nodetypes="ccccssssscccsscccccssscssssscc"
         id="path3271"
         d="m 27,3 0,0.5 0,9 1,0 c 0,-0.352077 0.194662,-0.698411 0.5,-1.0625 0.305338,-0.364089 0.70553,-0.706704 1.03125,-1.0625 0.178913,-0.195433 0.546105,-0.368099 0.8125,-0.375 0.307665,-0.00797 0.607337,0.07877 0.875,0.21875 1.103266,0.576966 2.140329,1.882369 3.21875,3.5 0.984691,1.477036 2.003762,2.690478 3.4375,3.15625 0.982011,0.290906 1.945479,0.442255 4.484835,-0.709597 C 40.841585,15.987171 40.166996,15.521175 39.15625,14.65625 37.850417,13.435211 37.005356,11.699035 36.1875,9.9375 35.368335,8.1731452 34.581634,6.4247645 33.5625,5.125 32.556138,3.8415248 31.328478,3 29.5,3 l -2,0 -0.5,0 z m 1,1 1.5,0 c 1.546522,0 2.33722,0.5858744 3.25,1.75 0.900008,1.1478363 1.678257,2.8550922 2.5,4.625 0.823052,1.772727 1.730281,3.639435 3.21875,5.03125 C 38.671929,15.596236 39.217621,15.885778 39.5,16 39.077763,16.147257 38.447708,16.03704 38.1875,15.9375 37.13984,15.53673 36.194193,14.57254 35.25,13.15625 34.147705,11.502807 33.059218,10.077448 31.65625,9.34375 31.297355,9.1560614 30.870995,8.9863414 30.34375,9 29.775235,9.0147277 29.185805,9.2455899 28.78125,9.6875 28.590727,9.8956153 28.286773,10.19987 28,10.5 L 28,4 z"
         style="fill:#008000;fill-opacity:1;stroke:none" />
    </g>
  </g>
</svg>
