/* XPM */
static char * qtcs_xpm[] = {
"32 32 396 2",
"  	c None",
". 	c #127712",
"+ 	c #137A13",
"@ 	c #0F7310",
"# 	c #0E6D0E",
"$ 	c #0E6F0E",
"% 	c #0E720F",
"& 	c #0E710E",
"* 	c #0D6A0E",
"= 	c #0C5E0C",
"- 	c #0B530B",
"; 	c #0D530D",
"> 	c #116E11",
", 	c #0E700F",
"' 	c #0E780F",
") 	c #108C12",
"! 	c #109C14",
"~ 	c #11A816",
"{ 	c #11B016",
"] 	c #10AF15",
"^ 	c #11A814",
"/ 	c #109A13",
"( 	c #0F8511",
"_ 	c #0D6C0F",
": 	c #0B510B",
"< 	c #0B4C0B",
"[ 	c #106810",
"} 	c #0E740E",
"| 	c #0D720E",
"1 	c #108F12",
"2 	c #11AA16",
"3 	c #11CA18",
"4 	c #0E9B13",
"5 	c #146417",
"6 	c #203D21",
"7 	c #2D2F2D",
"8 	c #2D2D2D",
"9 	c #1E331F",
"0 	c #0F4810",
"a 	c #0B670D",
"b 	c #0F8711",
"c 	c #0D5F0D",
"d 	c #0B4B0B",
"e 	c #0C510C",
"f 	c #0C660C",
"g 	c #0D780F",
"h 	c #119C14",
"i 	c #12C618",
"j 	c #0F9F15",
"k 	c #353F35",
"l 	c #79E97E",
"m 	c #51ED57",
"n 	c #40EE46",
"o 	c #41F448",
"p 	c #53FE59",
"q 	c #70EB76",
"r 	c #686369",
"s 	c #1F181F",
"t 	c #0A590B",
"u 	c #0E690F",
"v 	c #0C4C0B",
"w 	c #0B4D0B",
"x 	c #138213",
"y 	c #0D760F",
"z 	c #119F15",
"A 	c #11D018",
"B 	c #1B741F",
"C 	c #57E35C",
"D 	c #1BCD21",
"E 	c #10C517",
"F 	c #0DC215",
"G 	c #0DC517",
"H 	c #0ECD17",
"I 	c #0FD918",
"J 	c #15E81D",
"K 	c #24F42C",
"L 	c #5FFA64",
"M 	c #6C556B",
"N 	c #0D2F0E",
"O 	c #0D630D",
"P 	c #0A4B0A",
"Q 	c #0C6E0E",
"R 	c #119914",
"S 	c #11CE18",
"T 	c #28742B",
"U 	c #22CA27",
"V 	c #0DB715",
"W 	c #0BAE13",
"X 	c #097C0F",
"Y 	c #155918",
"Z 	c #225224",
"` 	c #1E4E21",
" .	c #115915",
"..	c #0A9211",
"+.	c #10E61B",
"@.	c #12F01C",
"#.	c #34E839",
"$.	c #133013",
"%.	c #405140",
"&.	c #0A5A0A",
"*.	c #0F8A12",
"=.	c #11BD18",
"-.	c #1E9D23",
";.	c #18C31D",
">.	c #0CAE14",
",.	c #09880E",
"'.	c #405440",
").	c #CAB7C9",
"!.	c #DAD6DA",
"~.	c #CDC9CD",
"{.	c #FFFDFF",
"].	c #A18EA1",
"^.	c #253525",
"/.	c #0DBB15",
"(.	c #12F11B",
"_.	c #2CD830",
":.	c #259927",
"<.	c #6CD26D",
"[.	c #0D720F",
"}.	c #12A515",
"|.	c #11C918",
"1.	c #22BF27",
"2.	c #0CAC14",
"3.	c #0E7D12",
"4.	c #9F919E",
"5.	c #FFFFFF",
"6.	c #3F3F3F",
"7.	c #000000",
"8.	c #2A2A2A",
"9.	c #ECE9EC",
"0.	c #5C485B",
"a.	c #0A9A11",
"b.	c #618163",
"c.	c #223F22",
"d.	c #18971A",
"e.	c #084909",
"f.	c #0F8712",
"g.	c #10BD16",
"h.	c #40B544",
"i.	c #66BA67",
"j.	c #0BB713",
"k.	c #0A8C0F",
"l.	c #A79DA6",
"m.	c #F5F5F5",
"n.	c #010101",
"o.	c #8B8B8B",
"p.	c #E1E1E1",
"q.	c #E9E9E9",
"r.	c #A0A0A0",
"s.	c #141414",
"t.	c #BABABA",
"u.	c #B8A6B7",
"v.	c #0C6D0E",
"w.	c #47A547",
"x.	c #0B600B",
"y.	c #119814",
"z.	c #0FD116",
"A.	c #19AC1E",
"B.	c #0AA211",
"C.	c #4A824B",
"D.	c #060606",
"E.	c #191919",
"F.	c #3D3D3D",
"G.	c #325F34",
"H.	c #188719",
"I.	c #0D6F0E",
"J.	c #10A515",
"K.	c #1CCE23",
"L.	c #0CBD13",
"M.	c #0A8D0F",
"N.	c #E1D7E1",
"O.	c #7F7E7F",
"P.	c #FEFEFE",
"Q.	c #040404",
"R.	c #444444",
"S.	c #857984",
"T.	c #0C800E",
"U.	c #042304",
"V.	c #0E770F",
"W.	c #11AF15",
"X.	c #31D937",
"Y.	c #628E63",
"Z.	c #0BB314",
"`.	c #1E8320",
" +	c #3C3C3C",
".+	c #747474",
"++	c #020202",
"@+	c #0D6F0F",
"#+	c #5EA35E",
"$+	c #042504",
"%+	c #0E7C10",
"&+	c #10B416",
"*+	c #3DE342",
"=+	c #4A824C",
"-+	c #0BAF13",
";+	c #2C872E",
">+	c #101010",
",+	c #696969",
"'+	c #FBFBFB",
")+	c #646464",
"!+	c #126A14",
"~+	c #499349",
"{+	c #032003",
"]+	c #0E7D10",
"^+	c #11B416",
"/+	c #3BE841",
"(+	c #48744A",
"_+	c #2C872F",
":+	c #1B1B1B",
"<+	c #565656",
"[+	c #F0F0F0",
"}+	c #030303",
"|+	c #0D0D0D",
"1+	c #878787",
"2+	c #136F15",
"3+	c #4A8E4A",
"4+	c #011201",
"5+	c #0E790F",
"6+	c #11AF16",
"7+	c #2DE933",
"8+	c #644F62",
"9+	c #0BB814",
"0+	c #19821C",
"a+	c #545454",
"b+	c #FCFCFC",
"c+	c #F8F8F8",
"d+	c #343434",
"e+	c #242424",
"f+	c #0D710F",
"g+	c #629762",
"h+	c #0D700D",
"i+	c #11A615",
"j+	c #19E421",
"k+	c #0C9912",
"l+	c #0D8D11",
"m+	c #9EBFA0",
"n+	c #F4F1F4",
"o+	c #787878",
"p+	c #EBEBEB",
"q+	c #161616",
"r+	c #212121",
"s+	c #A6A6A6",
"t+	c #8D848D",
"u+	c #0C860E",
"v+	c #094E09",
"w+	c #109B14",
"x+	c #11D318",
"y+	c #81F886",
"z+	c #185D1B",
"A+	c #0BA412",
"B+	c #318434",
"C+	c #7D7D7D",
"D+	c #E0E0E0",
"E+	c #181818",
"F+	c #858585",
"G+	c #FEFDFE",
"H+	c #38863A",
"I+	c #177219",
"J+	c #032704",
"K+	c #11BE18",
"L+	c #2CF334",
"M+	c #703A6E",
"N+	c #0A9F12",
"O+	c #5B995E",
"P+	c #8D8C8D",
"Q+	c #282828",
"R+	c #3B3B3B",
"S+	c #656565",
"T+	c #130C12",
"U+	c #0E9510",
"V+	c #4B6D4B",
"W+	c #0C720D",
"X+	c #11A815",
"Y+	c #12DD19",
"Z+	c #74F979",
"`+	c #232E24",
" @	c #0CAC13",
".@	c #128614",
"+@	c #519454",
"@@	c #838183",
"#@	c #494949",
"$@	c #444344",
"%@	c #716F70",
"&@	c #FFF9FF",
"*@	c #4EC251",
"=@	c #09960F",
"-@	c #3DFC43",
";@	c #26B129",
">@	c #157117",
",@	c #042604",
"'@	c #109412",
")@	c #12BD18",
"!@	c #1AEC22",
"~@	c #162517",
"{@	c #0CAD13",
"]@	c #0D9112",
"^@	c #28842A",
"/@	c #6FA771",
"(@	c #B6D8B8",
"_@	c #EBFAEC",
":@	c #F1FEF2",
"<@	c #B6DBB8",
"[@	c #6CBB6F",
"}@	c #1EB422",
"|@	c #0ED717",
"1@	c #10F21C",
"2@	c #37743A",
"3@	c #1E471F",
"4@	c #08540A",
"5@	c #11A114",
"6@	c #12CB19",
"7@	c #1FF028",
"8@	c #89D98C",
"9@	c #261E26",
"0@	c #0B8210",
"a@	c #0BB013",
"b@	c #0D9A11",
"c@	c #16921B",
"d@	c #1C9320",
"e@	c #1A9B1E",
"f@	c #13AB19",
"g@	c #0CC114",
"h@	c #0FE21A",
"i@	c #10BE19",
"j@	c #49584A",
"k@	c #18901A",
"l@	c #3E9F3E",
"m@	c #0C710D",
"n@	c #11A715",
"o@	c #12CC19",
"p@	c #19ED21",
"q@	c #59F55F",
"r@	c #734F72",
"s@	c #1E2B1E",
"t@	c #0D6611",
"u@	c #0B9211",
"v@	c #0CAB13",
"w@	c #0CB114",
"x@	c #0CA414",
"y@	c #118217",
"z@	c #2D5A30",
"A@	c #67E06A",
"B@	c #129415",
"C@	c #177F17",
"D@	c #0B6F0D",
"E@	c #12C319",
"F@	c #13E21B",
"G@	c #24F22C",
"H@	c #56FB5C",
"I@	c #75BB79",
"J@	c #716270",
"K@	c #672E65",
"L@	c #71396F",
"M@	c #5FEE63",
"N@	c #21C025",
"O@	c #0E8C10",
"P@	c #0D660E",
"Q@	c #0B4F0C",
"R@	c #084608",
"S@	c #074808",
"T@	c #11A014",
"U@	c #12B216",
"V@	c #12C519",
"W@	c #11D719",
"X@	c #17E31E",
"Y@	c #1DE925",
"Z@	c #21EB29",
"`@	c #22E629",
" #	c #1DD724",
".#	c #14BE19",
"+#	c #0E9F13",
"@#	c #0F8310",
"##	c #0D640D",
"$#	c #0B500B",
"%#	c #063606",
"&#	c #021202",
"*#	c #0A620B",
"=#	c #109C13",
"-#	c #11A515",
";#	c #11AD16",
">#	c #109A14",
",#	c #108A12",
"'#	c #0E740F",
")#	c #0B5C0C",
"!#	c #073D07",
"~#	c #021602",
"{#	c #000800",
"]#	c #053406",
"^#	c #095A0A",
"/#	c #0B6C0D",
"(#	c #0D790F",
"_#	c #0C700E",
":#	c #0A5E0B",
"<#	c #074208",
"[#	c #042704",
"}#	c #010B01",
"                                                                ",
"                                                                ",
"                                . +                             ",
"                        @ # $ % & * = - ; >                     ",
"                    , ' ) ! ~ { ] ^ / ( _ : < [                 ",
"                } | 1 2 3 4 5 6 7 8 9 0 a b c d e               ",
"              f g h i j k   l m n o p q r s t u v w x           ",
"            = y z A B   C D E F G H I J K L M N O P             ",
"            Q R S T   U V W X Y Z `  ...+.@.#.  $.%.            ",
"          &.*.=.-.  ;.>.,.'.).  !.~.{.].^./.(._.:.<.            ",
"          [.}.|.  1.2.3.4.5.6.7.7.7.7.8.9.0.a.b.c.d.            ",
"        e.f.g.h.i.j.k.l.m.7.n.o.p.q.r.s.7.t.u.    v.w.          ",
"        x.y.z.  A.B.C.  D.E.5.5.5.5.5.5.F.7.5.    G.H.          ",
"        I.J.K.  L.M.N.O.7.5.5.P.P.5.P.P.5.Q.R.    S.T.          ",
"      U.V.W.X.Y.Z.`.  8. +5.P.P.5.5.P.5.5..+++      @+#+        ",
"      $+%+&+*+=+-+;+  >+,+5.5.5.5.P.5.'+7.)+7.      !+~+        ",
"      {+]+^+/+(+-+_+  :+<+5.P.P.P.5.[+}+|+1+7.      2+3+        ",
"      4+5+6+7+8+9+0+  a+Q.5.P.P.5.b+7.7.c+d+e+      f+g+        ",
"        h+i+j+  k+l+m+n+7.o+5.5.p+7.q+r+D.7.s+    t+u+          ",
"        v+w+x+y+z+A+B+  C+7.)+5.D+E+5.F+7.7.G+    H+I+          ",
"        J+) K+L+M+N+l+O+  P+7.7.Q+R+7.7.S+T+7.    U+V+          ",
"          W+X+Y+Z+`+ @.@+@5.5.@@#@$@%@&@5.*@=@-@;@>@            ",
"          ,@'@)@!@  ~@{@]@^@/@(@_@:@<@[@}@|@1@2@3@              ",
"            4@5@6@7@8@9@0@a@b@c@d@e@f@g@h@i@j@  k@l@            ",
"            7.m@n@o@p@q@r@s@t@u@v@w@x@y@z@  A@B@c < C@          ",
"              7.D@n@E@F@G@H@I@J@K@L@    M@N@O@P@Q@R@            ",
"                7.S@T@U@V@W@X@Y@Z@`@ #.#+#@###$#%#              ",
"                    &#*#=#-#;#6+;#J.>#,#'#)#!#~#                ",
"                        {#]#^#/#(#_#:#<#[#}#                    ",
"                                                                ",
"                                                                ",
"                                                                "};
