/* XPM */
static char *qtcs32_xpm[] = {
"32 32 228 2",
"  	c None",
"BA	c #0F5645",
"CA	c #0F5745",
"DA	c #0F5646",
"EA	c #0F5746",
"FA	c #105545",
"GA	c #105644",
"HA	c #115744",
"IA	c #105645",
"JA	c #115645",
"KA	c #105745",
"LA	c #115745",
"MA	c #105546",
"NA	c #105646",
"OA	c #115746",
"PA	c #125746",
"QA	c #115845",
"RA	c #125945",
"SA	c #135847",
"TA	c #135C46",
"UA	c #145D45",
"VA	c #155F45",
"WA	c #145948",
"XA	c #155949",
"YA	c #165A49",
"ZA	c #175B4A",
"aA	c #175B4B",
"bA	c #1A5D4D",
"cA	c #1B5E4E",
"dA	c #1C5F4E",
"eA	c #1D5F4F",
"fA	c #166045",
"gA	c #196345",
"hA	c #186246",
"iA	c #196445",
"jA	c #196446",
"kA	c #1A6746",
"lA	c #1D6A45",
"mA	c #1D6C46",
"nA	c #1E6050",
"oA	c #1F6151",
"pA	c #207046",
"qA	c #207146",
"rA	c #227347",
"sA	c #257646",
"tA	c #277B46",
"uA	c #297E47",
"vA	c #206151",
"wA	c #216252",
"xA	c #236354",
"yA	c #266556",
"zA	c #276757",
"0A	c #286758",
"1A	c #296859",
"2A	c #2B695A",
"3A	c #2D6B5C",
"4A	c #2F6C5D",
"5A	c #306D5E",
"6A	c #316D5F",
"7A	c #326E5F",
"8A	c #336F60",
"9A	c #357061",
"+A	c #357162",
"/A	c #367163",
"AB	c #3A7466",
"BB	c #3B7467",
"CB	c #3C7567",
"DB	c #3D7668",
"EB	c #3E7669",
"FB	c #3F7769",
"GB	c #437A6C",
"HB	c #447B6E",
"IB	c #457C6F",
"JB	c #467C6F",
"KB	c #477D70",
"LB	c #2E8747",
"MB	c #2F8847",
"NB	c #338D47",
"OB	c #338F47",
"PB	c #379447",
"QB	c #399747",
"RB	c #3B9C47",
"SB	c #359148",
"TB	c #389848",
"UB	c #399948",
"VB	c #3D9E48",
"WB	c #3FA048",
"XB	c #3FA148",
"YB	c #43A848",
"ZB	c #44A948",
"aB	c #45AB48",
"bB	c #45AD48",
"cB	c #46AD49",
"dB	c #46AE48",
"eB	c #47AF48",
"fB	c #49B149",
"gB	c #4AB248",
"hB	c #4BB449",
"iB	c #4F8276",
"jB	c #53867A",
"kB	c #54867A",
"lB	c #57887C",
"mB	c #5B8B7F",
"nB	c #52C049",
"oB	c #52C249",
"pB	c #54C449",
"qB	c #55C549",
"rB	c #57C749",
"sB	c #57C849",
"tB	c #59CB4A",
"uB	c #5ED54A",
"vB	c #5FD74A",
"wB	c #61D94A",
"xB	c #63DA4A",
"yB	c #64DD4A",
"zB	c #66DF4B",
"0B	c #6AE74A",
"1B	c #6BEA4B",
"2B	c #6DEC4B",
"3B	c #6DED4B",
"4B	c #6EED4B",
"5B	c #6FEE4B",
"6B	c #70EF4A",
"7B	c #70F04B",
"8B	c #70F24B",
"9B	c #71F24B",
"+B	c #72F44B",
"/B	c #73F44B",
"AC	c #73F54B",
"BC	c #73F64B",
"CC	c #74F74B",
"DC	c #5C8C80",
"EC	c #5D8C81",
"FC	c #5F8E82",
"GC	c #629085",
"HC	c #69958A",
"IC	c #6A968B",
"JC	c #6E988E",
"KC	c #709A8F",
"LC	c #719A90",
"MC	c #759E94",
"NC	c #769E95",
"OC	c #79A097",
"PC	c #7AA197",
"QC	c #7CA299",
"RC	c #7DA39A",
"SC	c #80A59C",
"TC	c #80A69D",
"UC	c #82A79E",
"VC	c #83A89F",
"WC	c #84A89F",
"XC	c #86AAA1",
"YC	c #8AACA4",
"ZC	c #8BADA5",
"aC	c #90B1A9",
"bC	c #91B1AA",
"cC	c #92B2AA",
"dC	c #96B5AD",
"eC	c #9CB9B2",
"fC	c #9DB9B2",
"gC	c #9EBBB4",
"hC	c #9FBBB5",
"iC	c #A0BCB5",
"jC	c #A2BDB7",
"kC	c #A3BEB8",
"lC	c #A4BFB8",
"mC	c #A5BFB9",
"nC	c #A8C1BB",
"oC	c #A9C2BC",
"pC	c #ACC4BE",
"qC	c #AFC7C1",
"rC	c #B0C7C2",
"sC	c #B2C9C3",
"tC	c #B3C9C4",
"uC	c #B5CBC5",
"vC	c #B6CBC6",
"wC	c #B9CDC8",
"xC	c #BACEC9",
"yC	c #BBCFCA",
"zC	c #BCD0CB",
"0C	c #BFD2CD",
"1C	c #C0D3CE",
"2C	c #C2D4D0",
"3C	c #C4D5D1",
"4C	c #C5D6D2",
"5C	c #C6D7D3",
"6C	c #C7D7D3",
"7C	c #C8D8D4",
"8C	c #C9D9D5",
"9C	c #CBDAD6",
"+C	c #CEDDD9",
"/C	c #CFDDDA",
"AD	c #D0DEDB",
"BD	c #D3E0DD",
"CD	c #D4E1DD",
"DD	c #D6E2DF",
"ED	c #D7E2E0",
"FD	c #D9E4E1",
"GD	c #DAE4E2",
"HD	c #DAE5E3",
"ID	c #DBE6E3",
"JD	c #DCE6E4",
"KD	c #DDE7E5",
"LD	c #DEE8E5",
"MD	c #DFE8E6",
"ND	c #E3EBE9",
"OD	c #E5ECEB",
"PD	c #E7EEEC",
"QD	c #E8EEED",
"RD	c #E9EFED",
"SD	c #EAF0EF",
"TD	c #ECF2F0",
"UD	c #EDF2F1",
"VD	c #EEF3F2",
"WD	c #F0F4F3",
"XD	c #F1F5F4",
"YD	c #F2F6F5",
"ZD	c #F3F6F6",
"aD	c #F4F7F6",
"bD	c #F7FAF9",
"cD	c #F8FAFA",
"dD	c #F9FBFB",
"eD	c #FAFCFB",
"fD	c #FBFCFC",
"gD	c #FCFDFD",
"hD	c #FDFEFE",
"iD	c #FEFEFE",
"jD	c #FFFFFF",
"                                                                ",
"                          NAIAIAKABAMA                          ",
"                    FAIAIAIAIAIAIAIAIAIAIAIA                    ",
"                FAIAIAIAIAIAIAIAIAIAIAIAIAIAIACA                ",
"              BAIAIAIASAiBjDjDjDjDjDtCRCIAIAIAIAIANA            ",
"          IAIAIAIASAJCODjDaD8CkChCsCFDjDiDuCIAIAIAIAIA          ",
"          IAIAIABA9CjD6CIAIAIAIAIAIAIAIAWCVDeDSCPAIAIANA        ",
"        IAIAIABARDYDGCBAIAWCzCKDMD3CaCIAIAnApCjDmCPAIAIA        ",
"      GAIAIAIANDPDIABAiCgDhDADpCmC6CcDjDwC2AIAWCjDdCIAIAIA      ",
"      IAIAIAwCaDIABAJDdDcCIABAIAIAIAIARCXDVDHBIAdCjDjBIAIA      ",
"    IAIAIADCjDIABAJDTDIAIATANBaBbBSBfAIAIAIDWD8AZAlCIAIAIAIA    ",
"    IAIAIA7CJDBAjCeDIAIALB0BCC9B6BCC4BPBIAIAUDIAIAIAIAIAIAIA    ",
"    IAIA8AjDIABAgDIAIAMBCCvBIAKAKAIACCCCTBIAIAPAIAIAIAIAIAIANA  ",
"  IAIAIAjDjDBAXCgDBAUA1BuBTAIAIAIAIAQArB7BIAIAIAIAIAIAIAIAIAIA  ",
"  BAIAIAjD0CBA0C+CIAOBCCIAIAIAIAIAIAIAIABCXBIAIAIAIAIAIAIAIAIA  ",
"  DAIAIAjDLCIAIDpCIAeBCCKAIAIAIAVAiAIAIACCoBIAIAIAIAIAIAIAIAIA  ",
"  IAIAIAjDLCIAKDoCIAfBCCIAIAIAIAeBCCIARACCpBIAIAIAIAIAIAIAIAIA  ",
"  IAIAIAjD0CIA5C5CIAQBCCIAIAIAIAUB2BCCzBCCZBIAIAIAIAIAIAIAIAIA  ",
"  IAIAIAjDjDBAaCcDIAIACCqBKAIAIAIAhAhBCCBCIAIAIAIAIAIAIAIAIACA  ",
"  IAIAIAEBjDBAIAjDQCIARBCCnBIAIAIAfAgBCCdBIAaAIAIAIAIAIAIAIAIA  ",
"    IAIAOAFDIABAxCYD4AIAWBCCCCCCCCCCCCeBLABAIDZCIAIAIAIAIAIA    ",
"    IAIAIAKCjDBABAUDHDBAIAIAYBrBsBcBIAIABA2CfDIABAOCIAIAIAIA    ",
"      IAIAWA/CQDzAIAWDSDBABAIAIAIAIAIAIAJDfDIABAMCjDJCIAIAGA    ",
"      KAIAIAABjDBDBAIA8CjDRDlCUCTCfCKDjDjDIABAFCfDvCOAIAIA      ",
"        IAIAIAiBbDLDBAOAlBqCjDjDjDjDyCIABAPAVCfD4CbAIAIA        ",
"        BAIAIAIAGBODfDBABAIABABABABAIAWAmBBDjDnCcAIAIAIA        ",
"          NAIAIAIAIAdCdDjDADgCTCSCYCrCVDjDGDFCIAIAIAIA          ",
"            JAIAIAIAIAIAjDjDjDjDjDjDjDjDIASAIAIAIAHA            ",
"                IAIAIAIAIAIAIAIAIAYAIAIAIAIAIAIA                ",
"                  IAGAIAIAIAIAIAIAIAIAIAIAIANA                  ",
"                        IAIAIAIAIAIAKAEA                        ",
"                                                                "
};
