<?xml version="1.0" encoding="UTF-8" standalone="no"?>
<!-- Created with Inkscape (http://www.inkscape.org/) -->
<svg
   xmlns:dc="http://purl.org/dc/elements/1.1/"
   xmlns:cc="http://creativecommons.org/ns#"
   xmlns:rdf="http://www.w3.org/1999/02/22-rdf-syntax-ns#"
   xmlns:svg="http://www.w3.org/2000/svg"
   xmlns="http://www.w3.org/2000/svg"
   xmlns:sodipodi="http://sodipodi.sourceforge.net/DTD/sodipodi-0.dtd"
   xmlns:inkscape="http://www.inkscape.org/namespaces/inkscape"
   width="64"
   height="64"
   id="svg2"
   sodipodi:version="0.32"
   inkscape:version="0.46"
   version="1.0"
   sodipodi:docname="render.svg"
   inkscape:output_extension="org.inkscape.output.svg.inkscape"
   inkscape:export-filename="/home/andres/src/qutecsound/trunk/qutecsound/images/render.png"
   inkscape:export-xdpi="90"
   inkscape:export-ydpi="90">
  <defs
     id="defs4">
    <inkscape:perspective
       sodipodi:type="inkscape:persp3d"
       inkscape:vp_x="0 : 526.18109 : 1"
       inkscape:vp_y="6.1230318e-14 : 1000 : 0"
       inkscape:vp_z="744.09448 : 526.18109 : 1"
       inkscape:persp3d-origin="372.04724 : 350.78739 : 1"
       id="perspective10" />
  </defs>
  <sodipodi:namedview
     id="base"
     pagecolor="#ffffff"
     bordercolor="#666666"
     borderopacity="1.0"
     inkscape:pageopacity="0.0"
     inkscape:pageshadow="2"
     inkscape:zoom="2.8"
     inkscape:cx="23.679349"
     inkscape:cy="30.679267"
     inkscape:document-units="px"
     inkscape:current-layer="layer1"
     showgrid="false"
     inkscape:window-width="1094"
     inkscape:window-height="730"
     inkscape:window-x="123"
     inkscape:window-y="184" />
  <metadata
     id="metadata7">
    <rdf:RDF>
      <cc:Work
         rdf:about="">
        <dc:format>image/svg+xml</dc:format>
        <dc:type
           rdf:resource="http://purl.org/dc/dcmitype/StillImage" />
      </cc:Work>
    </rdf:RDF>
  </metadata>
  <g
     inkscape:label="Capa 1"
     inkscape:groupmode="layer"
     id="layer1">
    <g
       sodipodi:type="inkscape:box3d"
       style="opacity:0.87878789;fill:#808000;fill-opacity:0;fill-rule:nonzero;stroke:#c9ae15;stroke-width:4.99606276;stroke-linecap:butt;stroke-linejoin:miter;stroke-miterlimit:4;stroke-dasharray:none;stroke-dashoffset:0;stroke-opacity:1"
       id="g2383"
       inkscape:perspectiveID="#perspective10"
       inkscape:corner0="69.1539 : -4.0528513 : 0 : 1"
       inkscape:corner7="7.3233441 : -33.31897 : 0.25 : 1">
      <path
         sodipodi:type="inkscape:box3dside"
         id="path2393"
         style="fill:#afafde;fill-rule:evenodd;stroke:none;stroke-width:1px;stroke-linecap:butt;stroke-linejoin:round;stroke-opacity:1"
         inkscape:box3dsidetype="13"
         d="M 5.3033009,15.260131 L 44.69925,3561.9663 L 65.09372,3444.6216 L 7.9267038,13.564766 L 5.3033009,15.260131 z" />
      <path
         sodipodi:type="inkscape:box3dside"
         id="path2385"
         style="fill:#353564;fill-rule:evenodd;stroke:none;stroke-width:1px;stroke-linecap:butt;stroke-linejoin:round;stroke-opacity:1"
         inkscape:box3dsidetype="6"
         d="M 5.3033009,-401.9101 L 5.3033009,15.260131 L 7.9267038,13.564766 L 7.9267038,-402.12412 L 5.3033009,-401.9101 z" />
      <path
         sodipodi:type="inkscape:box3dside"
         id="path2395"
         style="fill:#e9e9ff;fill-rule:evenodd;stroke:none;stroke-width:1px;stroke-linecap:butt;stroke-linejoin:round;stroke-opacity:1"
         inkscape:box3dsidetype="11"
         d="M 7.9267038,-402.12412 L 65.09372,31.003944 L 65.09372,3444.6216 L 7.9267038,13.564766 L 7.9267038,-402.12412 z" />
      <path
         sodipodi:type="inkscape:box3dside"
         id="path2387"
         style="fill:#4d4d9f;fill-rule:evenodd;stroke:none;stroke-width:1px;stroke-linecap:butt;stroke-linejoin:round;stroke-opacity:1"
         inkscape:box3dsidetype="5"
         d="M 5.3033009,-401.9101 L 44.69925,45.817252 L 65.09372,31.003944 L 7.9267038,-402.12412 L 5.3033009,-401.9101 z" />
      <path
         sodipodi:type="inkscape:box3dside"
         id="path2391"
         style="fill:#d7d7ff;fill-rule:evenodd;stroke:none;stroke-width:1px;stroke-linecap:butt;stroke-linejoin:round;stroke-opacity:1"
         inkscape:box3dsidetype="14"
         d="M 44.69925,45.817252 L 44.69925,3561.9663 L 65.09372,3444.6216 L 65.09372,31.003944 L 44.69925,45.817252 z" />
      <path
         sodipodi:type="inkscape:box3dside"
         id="path2389"
         style="fill:#8686bf;fill-rule:evenodd;stroke:none;stroke-width:1px;stroke-linecap:butt;stroke-linejoin:round;stroke-opacity:1"
         inkscape:box3dsidetype="3"
         d="M 5.3033009,-401.9101 L 44.69925,45.817252 L 44.69925,3561.9663 L 5.3033009,15.260131 L 5.3033009,-401.9101 z" />
    </g>
    <rect
       style="opacity:0.87878789;fill:#ffffff;fill-opacity:1;fill-rule:nonzero;stroke:#15c3c9;stroke-width:6;stroke-linecap:round;stroke-linejoin:miter;stroke-miterlimit:4;stroke-dasharray:none;stroke-dashoffset:0;stroke-opacity:1"
       id="rect5413"
       width="40.714287"
       height="47.142857"
       x="17.857143"
       y="4.3571429" />
    <path
       style="fill:none;fill-rule:evenodd;stroke:#000000;stroke-width:3.39253211;stroke-linecap:round;stroke-linejoin:miter;stroke-miterlimit:4;stroke-dasharray:none;stroke-opacity:1"
       d="M 24.053409,22.322052 C 29.505692,5.3593929 33.511336,6.3799884 38.188959,20.504625 C 43.340689,36.060887 49.574161,28.613796 53.209017,17.507292"
       id="path5409"
       sodipodi:nodetypes="css" />
    <g
       transform="matrix(-1.2361306,1.6968313,1.6968313,1.2361306,36.60274,-95.504425)"
       style="font-size:12px"
       id="g584">
      <path
         d="M 51.9665,36.0486 C 53.9602,37.0454 65.4724,34.7713 65.7572,32.6353 C 66.172581,27.312501 55.6307,20.7151 54.0642,20.1455 C 52.4977,19.5759 51.1121,20.0634 50.6849,21.0602 C 50.2577,22.057 49.6881,35.3365 51.9665,36.0486 z"
         transform="matrix(1.369638,0,0,1.207417,-21.85404,-4.997635)"
         style="fill:#0d3c07;fill-rule:evenodd;stroke-width:1pt"
         id="path582"
         sodipodi:nodetypes="ccscc" />
      <path
         d="M 51.5506,35.4589 C 53.5443,36.4557 64.2247,34.8892 64.5095,32.7532 C 64.7943,30.6171 60.955464,29.668153 61.382664,28.244153 C 57.018216,23.149473 50.6962,21.3608 50.269,22.3576 C 49.8418,23.3544 49.2722,34.7468 51.5506,35.4589 z"
         style="fill:#2aaf18;fill-rule:evenodd;stroke-width:1pt"
         id="path581"
         sodipodi:nodetypes="ccccc" />
      <path
         d="M 61.9462,28.3386 C 63.5126,29.6202 65.3639,32.7531 64.3671,33.6076 C 62.6583,35.174 52.8323,36.3133 51.693,35.7437 C 50.5538,35.174 60.0949,33.4652 60.2373,31.0443 C 60.3797,28.6234 57.458082,27.995128 58.312482,26.571028 C 59.166882,25.147028 61.519,27.769 61.9462,28.3386 z"
         style="fill:#208c11;fill-rule:evenodd;stroke-width:1pt"
         id="path583"
         sodipodi:nodetypes="cccccc" />
    </g>
  </g>
</svg>
