<?xml version="1.0" encoding="UTF-8" standalone="no"?>
<svg
   viewBox="0 0 32 32"
   version="1.1"
   id="svg5"
   sodipodi:docname="object-order-front.svg"
   inkscape:version="1.1.1 (3bf5ae0d25, 2021-09-20)"
   xmlns:inkscape="http://www.inkscape.org/namespaces/inkscape"
   xmlns:sodipodi="http://sodipodi.sourceforge.net/DTD/sodipodi-0.dtd"
   xmlns="http://www.w3.org/2000/svg"
   xmlns:svg="http://www.w3.org/2000/svg">
  <sodipodi:namedview
     id="namedview7"
     pagecolor="#ffffff"
     bordercolor="#666666"
     borderopacity="1.0"
     inkscape:pageshadow="2"
     inkscape:pageopacity="0.0"
     inkscape:pagecheckerboard="0"
     showgrid="false"
     inkscape:zoom="20.125"
     inkscape:cx="16"
     inkscape:cy="16"
     inkscape:window-width="1920"
     inkscape:window-height="1056"
     inkscape:window-x="0"
     inkscape:window-y="24"
     inkscape:window-maximized="1"
     inkscape:current-layer="svg5" />
  <defs
     id="defs3051">
    <style
       type="text/css"
       id="current-color-scheme">
      .ColorScheme-Text {
        color:#232629;
      }
      </style>
  </defs>
  <path
     style="fill:#f2f2f2;fill-opacity:1;stroke:none"
     d="M 4 4 L 4 5 L 28 5 L 28 4 L 4 4 z M 9.5390625 6 L 4.5390625 11 L 5.2460938 11.707031 L 9.0390625 7.9140625 L 9.0390625 28.003906 L 10.039062 28.003906 L 10.039062 7.9140625 L 13.832031 11.707031 L 14.539062 11 L 10.539062 7 L 9.5390625 6 z M 16 7 L 16 8 L 27 8 L 27 7 L 16 7 z M 16 10 L 16 11 L 28 11 L 28 10 L 16 10 z M 16 13 L 16 14 L 21 14 L 21 13 L 16 13 z M 16 16 L 16 17 L 27 17 L 27 16 L 16 16 z M 16 19 L 16 20 L 28 20 L 28 19 L 16 19 z M 16 22 L 16 23 L 22 23 L 22 22 L 16 22 z M 16 25 L 16 26 L 25 26 L 25 25 L 16 25 z "
     id="path28"
     class="ColorScheme-Text" />
</svg>
